<svg width="334" height="140" viewBox="0 0 334 140" fill="none" xmlns="http://www.w3.org/2000/svg">
<g clip-path="url(#clip0_1_8)">
<path opacity="0.4" d="M87.395 140C126.543 140 158.278 138.147 158.278 135.862C158.278 133.576 126.543 131.723 87.395 131.723C48.248 131.723 16.513 133.576 16.513 135.862C16.513 138.147 48.248 140 87.395 140Z" fill="#8A1114"/>
<path d="M66.7 27.434C63.852 29.781 61.07 33.564 62.7 37.67C64.33 41.776 74.764 42.189 76.958 40.5C79.81 38.306 77.291 28.538 75.068 28.48C74.9 24.857 69.08 25.47 66.7 27.434Z" fill="#263238"/>
<path d="M62.711 66.972C62.711 66.972 63.856 87.788 65.117 99.059C65.245 109.642 67.676 133.551 67.676 133.551H70.348C70.798 121.688 74.099 110.611 71.906 100.148C77.024 79.602 73.518 66.986 73.518 66.986L62.711 66.972Z" fill="#FFB573"/>
<path d="M65.621 66.986C65.621 66.986 71.123 90.076 72.629 99.91C74.216 110.242 76.578 130.29 76.469 133.544H78.775C78.775 133.544 82.65 113.261 79.064 100.276C82.021 71.029 74.724 67.008 74.724 67.008L65.621 66.986ZM52.428 40.28C52.256 39.034 49.968 38.928 49.968 38.928L48.87 38.376C48.6776 38.2583 48.447 38.22 48.2269 38.2691C48.0067 38.3181 47.8142 38.4508 47.69 38.639L47.324 39.246C47.2177 39.4848 47.2001 39.7538 47.2746 40.0045C47.349 40.2551 47.5105 40.4709 47.73 40.613L48.062 40.854C48.628 41.259 49.298 41.494 49.992 41.531L51.005 41.586C51.2274 41.5989 51.4502 41.5718 51.663 41.506C51.9154 41.4269 52.1306 41.2592 52.2692 41.0339C52.4077 40.8087 52.4602 40.5409 52.417 40.28H52.427H52.428Z" fill="#FFB573"/>
<path d="M64.48 47.574C64.3794 47.6791 64.2746 47.7802 64.166 47.877L63.878 48.133C63.688 48.294 63.49 48.443 63.296 48.593C62.9042 48.883 62.5005 49.1566 62.086 49.413C61.257 49.912 60.386 50.337 59.483 50.685C57.6847 51.3846 55.7755 51.7562 53.846 51.782H53.678C53.4158 51.7764 53.1569 51.7228 52.914 51.624C52.6426 51.5124 52.3944 51.3514 52.182 51.149C51.9075 50.879 51.6836 50.562 51.521 50.213C51.293 49.7188 51.1226 49.2001 51.013 48.667C50.819 47.7492 50.6966 46.8177 50.647 45.881C50.5481 44.0871 50.5849 42.2883 50.757 40.5C50.7774 40.3001 50.8705 40.1147 51.0187 39.979C51.1669 39.8434 51.3598 39.7669 51.5607 39.7642C51.7616 39.7615 51.9565 39.8327 52.1083 39.9643C52.2601 40.0959 52.3582 40.2787 52.384 40.478V40.5C52.581 42.203 52.808 43.933 53.114 45.589C53.25 46.391 53.437 47.183 53.674 47.961C53.769 48.28 53.898 48.586 54.062 48.875C54.127 48.981 54.193 49.032 54.164 48.995C54.1156 48.9431 54.0557 48.9033 53.989 48.879C53.9295 48.852 53.8666 48.8335 53.802 48.824H53.703C54.4891 48.7524 55.2689 48.6231 56.036 48.437C56.796 48.247 57.541 48.002 58.266 47.705C58.9877 47.3962 59.6833 47.0297 60.346 46.609C60.8372 46.3068 61.3085 45.9735 61.757 45.611L61.969 45.435L62.13 45.292L62.225 45.208C62.5444 44.9252 62.9612 44.7778 63.3874 44.797C63.8135 44.8162 64.2155 45.0004 64.5081 45.3108C64.8008 45.6211 64.9612 46.0332 64.9554 46.4597C64.9496 46.8862 64.778 47.2937 64.477 47.596L64.48 47.574Z" fill="#FFB573"/>
<path d="M66.28 43.516C63.387 43.033 60.352 45 58.78 46.6C57.969 49.042 60.568 52.01 60.568 52.01C60.568 52.01 64.271 49.737 65.606 48.183C66.94 46.63 67.946 43.793 66.278 43.515L66.28 43.516Z" fill="#E0E0E0"/>
<path d="M75.236 66.708C75.236 66.708 79.316 69.604 80.084 79.229C80.391 83.02 80.943 98.145 82.105 104.652C77.919 107.642 65.387 107.233 63.425 105.485C63.98 92.325 58.949 74.868 62.598 66.84C68.638 66.098 75.236 66.708 75.236 66.708Z" fill="#263238"/>
<path opacity="0.2" d="M71.098 94.313C71.153 88.783 70.338 81.171 67.862 76.659C68.707 82.289 71.098 94.313 71.098 94.313Z" fill="black"/>
<path d="M60.682 47.976C60.682 51.109 58.185 52.754 61.012 55.166C61.179 57.872 61.377 62.716 62.207 67.129C63.066 68.324 69.347 68.225 75.872 66.811C75.02 63.027 75.335 56.863 77.569 48.433C77.6882 47.965 77.7094 47.4775 77.6313 47.001C77.5532 46.5244 77.3775 46.0692 77.1151 45.6637C76.8528 45.2583 76.5095 44.9115 76.1068 44.6449C75.7041 44.3784 75.2507 44.198 74.775 44.115C74.2143 44.0149 73.6511 43.9295 73.086 43.859C71.046 43.559 68.986 43.405 66.923 43.399C66.257 43.399 65.567 43.443 64.908 43.487C63.7649 43.5577 62.6916 44.0612 61.9066 44.8951C61.1215 45.729 60.6836 46.8307 60.682 47.976Z" fill="#E0E0E0"/>
<path d="M74.014 53.416L66.354 55.15C66.2143 55.1819 66.093 55.268 66.0167 55.3893C65.9404 55.5106 65.9153 55.6572 65.947 55.797L68.427 66.747C68.4587 66.8867 68.5446 67.008 68.6657 67.0845C68.7868 67.161 68.9332 67.1864 69.073 67.155L76.733 65.421C76.8023 65.4052 76.8678 65.3759 76.9257 65.3348C76.9837 65.2936 77.0329 65.2415 77.0707 65.1813C77.1085 65.1211 77.1341 65.0541 77.146 64.984C77.1579 64.914 77.1558 64.8423 77.14 64.773L74.66 53.823C74.628 53.6835 74.5421 53.5624 74.4211 53.4861C74.3 53.4098 74.1536 53.3846 74.014 53.416ZM67.68 47.438C67.68 47.438 66.44 48.923 65.417 49.266L65.3 49.998C66.5942 49.8326 67.7888 49.2166 68.674 48.258L67.68 47.438ZM64.313 46.543C64.313 46.543 64.261 48.473 64.795 49.416L64.397 50.046C63.5349 49.0649 63.0456 47.8117 63.015 46.506L64.312 46.543H64.313Z" fill="#8A1114"/>
<path d="M72.834 36.906C72.344 38.851 71.77 42.437 73.086 43.852C73.086 43.852 68.184 45.19 64.989 49.577C63.526 44.967 66.937 43.392 66.937 43.392C69.171 43.026 69.2 41.395 68.893 39.831L72.834 36.906Z" fill="#FFB573"/>
<path opacity="0.2" d="M71.23 38.102L68.897 39.838C68.9722 40.1992 69.016 40.5662 69.028 40.935C69.877 40.876 71.083 40.039 71.222 39.165C71.2859 38.8138 71.2883 38.4541 71.229 38.102H71.23Z" fill="black"/>
<path d="M75.108 33.44C74.168 36.592 73.84 37.948 71.862 39.187C68.886 41.048 65.282 39.133 65.259 35.747C65.259 32.698 66.784 28.07 70.173 27.566C73.562 27.061 76.063 30.286 75.108 33.44Z" fill="#FFB573"/>
<path d="M72.651 28.838C71.763 31.876 72.524 35.053 74.337 35.418C76.856 34.478 76.731 31.682 76.087 30.402C75.445 29.122 73.163 27.087 72.651 28.838Z" fill="#263238"/>
<path d="M74.03 34.296C72.63 34.76 72.359 35.7 72.359 35.7C72.359 35.7 73.32 35.02 74.242 35.148C74.1083 34.8835 74.0358 34.5923 74.03 34.296ZM70.531 33.144C70.469 33.404 70.282 33.579 70.111 33.539C69.939 33.499 69.847 33.247 69.91 32.987C69.972 32.727 70.158 32.548 70.33 32.592C70.502 32.636 70.579 32.885 70.531 33.144ZM67.288 32.373C67.226 32.633 67.04 32.808 66.868 32.764C66.696 32.72 66.605 32.475 66.667 32.212C66.729 31.949 66.915 31.777 67.087 31.821C67.259 31.865 67.354 32.11 67.288 32.373Z" fill="#263238"/>
<path d="M67.168 31.854L66.579 31.514C66.579 31.514 66.788 32.084 67.168 31.854Z" fill="#263238"/>
<path d="M67.903 32.797C67.5312 33.3325 67.0855 33.8126 66.579 34.223C66.6903 34.3518 66.8278 34.4552 66.9823 34.5265C67.1369 34.5977 67.3048 34.635 67.475 34.636L67.903 32.797Z" fill="#ED893E"/>
<path d="M75.126 36.603C74.9323 36.83 74.692 37.0127 74.4215 37.1387C74.1509 37.2647 73.8564 37.3309 73.558 37.333C72.794 37.312 72.662 36.435 73.083 35.714C73.448 35.064 74.311 34.292 74.977 34.661C75.642 35.031 75.644 36.011 75.126 36.603Z" fill="#FFB573"/>
<path d="M71.142 32.026C71.1025 32.0063 71.0723 31.9718 71.058 31.93C70.9991 31.739 70.8973 31.564 70.7604 31.4184C70.6235 31.2728 70.455 31.1605 70.268 31.09C70.2428 31.0832 70.2197 31.0703 70.2006 31.0526C70.1815 31.0348 70.167 31.0127 70.1584 30.9881C70.1497 30.9635 70.1472 30.9372 70.1509 30.9114C70.1547 30.8856 70.1647 30.8611 70.18 30.84C70.1985 30.815 70.2243 30.7964 70.2539 30.7867C70.2835 30.777 70.3153 30.7768 70.345 30.786C70.5842 30.8695 70.8004 31.008 70.9762 31.1904C71.152 31.3728 71.2824 31.5939 71.357 31.836C71.3643 31.8553 71.3676 31.8759 71.3665 31.8966C71.3655 31.9172 71.3602 31.9374 71.351 31.9559C71.3418 31.9744 71.3289 31.9908 71.3131 32.0041C71.2972 32.0173 71.2788 32.0272 71.259 32.033C71.2205 32.0456 71.1787 32.0431 71.142 32.026ZM66.111 30.816C66.0697 30.8173 66.0293 30.803 65.998 30.776C65.9687 30.7461 65.9523 30.7059 65.9523 30.664C65.9523 30.6221 65.9687 30.5819 65.998 30.552C66.1609 30.3637 66.367 30.2175 66.5985 30.126C66.8301 30.0344 67.0803 30.0001 67.328 30.026C67.3699 30.0331 67.4074 30.0562 67.4327 30.0902C67.458 30.1243 67.4692 30.1669 67.464 30.209C67.4608 30.2295 67.4537 30.2491 67.4429 30.2667C67.4321 30.2844 67.418 30.2998 67.4012 30.3119C67.3845 30.3241 67.3655 30.3328 67.3454 30.3377C67.3253 30.3425 67.3044 30.3433 67.284 30.34C67.0879 30.3204 66.8899 30.3487 66.7072 30.4226C66.5245 30.4964 66.3624 30.6136 66.235 30.764C66.2194 30.7812 66.2001 30.7947 66.1787 30.8037C66.1573 30.8126 66.1342 30.8169 66.111 30.816ZM70.403 32.629L69.814 32.285C69.814 32.285 70.022 32.859 70.403 32.629Z" fill="#263238"/>
<path d="M70.213 58.585L67.288 58.018L67.618 61.378C67.618 61.378 69.811 61.283 71.061 60.281L71.178 59.843C71.043 59.115 70.878 58.848 70.213 58.585Z" fill="#FFB573"/>
<path d="M65.53 59.452L65.87 60.874C65.9196 61.0782 66.044 61.2564 66.2186 61.3734C66.3932 61.4904 66.6053 61.5377 66.813 61.506L67.632 61.378L67.303 58.018L66.056 58.472C65.8635 58.5426 65.7036 58.6814 65.6067 58.862C65.5097 59.0426 65.4824 59.2526 65.53 59.452ZM76.753 46.572C77.6419 48.2737 78.4175 50.0322 79.075 51.836C79.404 52.739 79.715 53.664 79.963 54.611C80.234 55.592 80.418 56.596 80.511 57.609C80.533 57.876 80.544 58.15 80.548 58.428V58.684C80.5151 58.9996 80.41 59.3034 80.241 59.572C80.071 59.835 79.85 60.06 79.591 60.234C79.2726 60.4456 78.9211 60.6024 78.551 60.698C78.2716 60.7754 77.9878 60.8355 77.701 60.878C76.704 61.003 75.698 61.041 74.695 60.991C72.7932 60.9033 70.9005 60.676 69.032 60.311C68.8282 60.279 68.6441 60.1708 68.5169 60.0084C68.3897 59.8459 68.3288 59.6413 68.3466 59.4357C68.3644 59.2302 68.4594 59.039 68.6126 58.9008C68.7658 58.7626 68.9657 58.6876 69.172 58.691C70.999 58.658 72.849 58.611 74.629 58.475C75.482 58.416 76.329 58.295 77.163 58.11C77.333 58.07 77.5 58.02 77.663 57.956C77.7441 57.9337 77.8192 57.8938 77.883 57.839C77.8129 57.8806 77.7549 57.9399 77.715 58.011C77.6382 58.1314 77.5903 58.268 77.575 58.41C77.5731 58.4343 77.5731 58.4587 77.575 58.483C77.575 58.296 77.543 58.117 77.514 57.913C77.1944 56.2183 76.6956 54.5623 76.026 52.973C75.3544 51.3103 74.6226 49.6725 73.832 48.063V48.034C73.6777 47.6518 73.6723 47.2257 73.817 46.8397C73.9617 46.4538 74.246 46.1362 74.6135 45.9498C74.9811 45.7633 75.4052 45.7215 75.8021 45.8326C76.199 45.9438 76.5398 46.1998 76.757 46.55L76.753 46.572Z" fill="#FFB573"/>
<path d="M74.966 44.229C77.06 44.616 77.993 46.499 79.513 50.257C79.049 52.787 75.331 54.117 75.331 54.117C75.331 54.117 73.196 50.334 72.772 48.327C72.348 46.32 72.852 43.837 74.966 44.229Z" fill="#E0E0E0"/>
<path d="M70.538 133.58C70.5206 133.532 70.4874 133.491 70.4439 133.464C70.4003 133.437 70.3489 133.425 70.298 133.431L67.818 133.394C67.5648 133.377 67.3118 133.431 67.088 133.551C65.953 134.26 64.6783 134.715 63.351 134.886C62.825 134.966 63.062 135.854 64.305 135.869C66.356 135.891 66.729 135.737 68.48 135.756C69.975 135.774 69.262 135.84 70.45 135.869C70.736 135.869 70.97 135.69 70.933 135.503L70.538 133.58ZM79.09 133.58C79.0722 133.532 79.0387 133.491 78.9948 133.464C78.9509 133.437 78.8992 133.425 78.848 133.431L76.826 133.394C76.5727 133.376 76.3195 133.43 76.096 133.551C75.364 134.059 75.466 134.648 73.799 134.886C73.273 134.966 73.532 135.854 74.775 135.869C76.826 135.891 76.702 135.756 77.535 135.756C78.369 135.756 77.857 135.84 79.049 135.869C79.334 135.869 79.564 135.69 79.521 135.503L79.09 133.58Z" fill="#263238"/>
<path d="M66.33 48.002C67.369 48.045 69.273 48.897 69.884 49.807C70.747 48.912 74.117 46.832 74.176 44.013C73.7635 43.6163 73.2437 43.3492 72.681 43.245C72.681 43.245 68.183 45.42 66.33 48.002ZM64.649 47.855C64.649 47.855 64.367 45.578 67.124 43.365C66.846 43.139 65.757 43.395 65.757 43.395C65.757 43.395 62.536 44.781 62.631 48.367C63.2114 47.9401 63.9353 47.7564 64.649 47.855Z" fill="#FAFAFA"/>
<path d="M64.24 48.82C63.84 49.007 63.684 50.305 64.24 50.608C64.795 50.911 64.74 49.672 65.062 49.248C65.384 48.824 64.939 48.495 64.24 48.82Z" fill="#8A1114"/>
<path d="M64.73 49.325C64.444 49.69 64.813 50.933 65.427 50.93C66.042 50.926 65.512 49.833 65.632 49.292C65.752 48.751 65.216 48.682 64.729 49.325H64.73Z" fill="#8A1114"/>
<path d="M64.813 50.25C64.13 49.193 64.083 54.761 65.738 56.955C65.628 54.794 66.788 51.73 64.813 50.25Z" fill="#8A1114"/>
<path d="M64.751 50.202C64.448 49.127 62.923 53.836 63.768 56.136C64.247 54.275 66.034 51.979 64.751 50.202Z" fill="#8A1114"/>
<path d="M69.847 35.641C70.007 35.571 70.16 35.489 70.304 35.393C70.3166 35.3809 70.3252 35.3652 70.3288 35.3481C70.3324 35.331 70.3307 35.3132 70.324 35.297C70.3194 35.2861 70.3126 35.2762 70.304 35.268C70.2888 35.2488 70.2669 35.2358 70.2427 35.2318C70.2185 35.2277 70.1937 35.2328 70.173 35.246C69.847 35.4648 69.4761 35.6076 69.0875 35.664C68.699 35.7205 68.3028 35.689 67.928 35.572C67.9058 35.5622 67.8807 35.5615 67.858 35.57C67.8468 35.5746 67.8366 35.5814 67.828 35.59C67.8194 35.5986 67.8126 35.6088 67.808 35.62C67.7999 35.6426 67.8011 35.6674 67.8112 35.6891C67.8213 35.7108 67.8395 35.7277 67.862 35.736C68.5128 35.95 69.2196 35.9162 69.847 35.641Z" fill="#263238"/>
<path d="M59.238 38.218H40.561V38.825H59.238V38.218ZM58.792 38.825H41.007L41.789 39.249H58.009L58.792 38.825Z" fill="#8A1114"/>
<path opacity="0.2" d="M58.792 38.825H41.007L41.789 39.249H58.009L58.792 38.825Z" fill="black"/>
<path d="M46.545 21.961C46.4358 21.96 46.3313 21.9161 46.2541 21.8389C46.1769 21.7616 46.133 21.6572 46.132 21.548V20.163C46.1328 20.0536 46.1765 19.9489 46.2538 19.8715C46.331 19.794 46.4356 19.75 46.545 19.749C46.6544 19.75 46.759 19.794 46.8362 19.8715C46.9135 19.9489 46.9572 20.0536 46.958 20.163V21.548C46.957 21.6572 46.9131 21.7616 46.8359 21.8389C46.7587 21.9161 46.6542 21.96 46.545 21.961Z" fill="#263238"/>
<path d="M47.21 20.078V19.896C47.21 19.8108 47.1762 19.729 47.116 19.6687C47.0559 19.6083 46.9742 19.5743 46.889 19.574H46.202C46.1166 19.574 46.0347 19.6079 45.9743 19.6683C45.9139 19.7287 45.88 19.8106 45.88 19.896V20.078C45.88 20.256 46.024 20.4 46.202 20.4H46.889C46.9744 20.4 47.0563 20.3661 47.1167 20.3057C47.1771 20.2453 47.21 20.1634 47.21 20.078Z" fill="#263238"/>
<path d="M47.207 24.97V21.018C47.207 20.9751 47.1903 20.9339 47.1605 20.9031C47.1306 20.8723 47.0899 20.8543 47.047 20.853H46.044C46.0011 20.8543 45.9604 20.8723 45.9305 20.9031C45.9007 20.9339 45.884 20.9751 45.884 21.018V24.97C45.8842 25.2671 45.8214 25.5608 45.6997 25.8317C45.578 26.1027 45.4002 26.3448 45.178 26.542C44.9567 26.7407 44.7795 26.9837 44.6579 27.2551C44.5363 27.5266 44.4729 27.8205 44.472 28.118V38.255H48.614V28.118C48.6139 27.8205 48.5511 27.5264 48.4296 27.2548C48.3082 26.9832 48.1307 26.7403 47.909 26.542C47.6881 26.344 47.5113 26.1017 47.3904 25.8309C47.2694 25.56 47.2069 25.2666 47.207 24.97Z" fill="#8A1114"/>
<path d="M48.614 29.317H45.88V35.871H48.614V29.317Z" fill="#E0E0E0"/>
<path d="M52.497 38.218H52.003C52.168 38.23 52.333 38.23 52.497 38.218ZM55.476 38.218H54.979C55.145 38.229 55.311 38.229 55.476 38.218Z" fill="#8A1114"/>
<path opacity="0.2" d="M51.835 30.486V32.15C51.835 33.473 52.588 34.574 53.542 34.709V37.634C53.542 38.084 53.104 38.211 52.764 38.24H54.712C54.372 38.211 53.934 38.083 53.934 37.634V34.709C54.888 34.577 55.641 33.477 55.641 32.149V30.486H51.835Z" fill="#8A1114"/>
<path d="M74.487 28.922C73.024 29.543 68.126 29.733 66.207 29.317C68.191 26.513 72.651 25.69 74.487 28.922ZM79.097 38.939C79.0828 38.9387 79.0689 38.9352 79.0563 38.9288C79.0437 38.9224 79.0326 38.9132 79.024 38.902C78.976 38.836 77.897 37.25 77.876 33.002C77.876 31.229 77.331 29.802 76.413 29.082C76.1746 28.8852 75.8933 28.7471 75.5918 28.6787C75.2903 28.6102 74.977 28.6134 74.677 28.688C74.6651 28.6908 74.6528 28.6913 74.6408 28.6892C74.6287 28.6871 74.6172 28.6826 74.607 28.676C74.5918 28.6662 74.5798 28.6522 74.5725 28.6356C74.5653 28.619 74.563 28.6007 74.5661 28.5829C74.5692 28.5651 74.5775 28.5485 74.5899 28.5354C74.6024 28.5223 74.6184 28.5131 74.636 28.509C74.9622 28.4311 75.302 28.4291 75.6291 28.5032C75.9563 28.5772 76.2621 28.7253 76.523 28.936C77.492 29.693 78.051 31.174 78.062 32.998C78.084 37.18 79.159 38.782 79.159 38.796C79.166 38.8059 79.171 38.8171 79.1735 38.829C79.1761 38.8408 79.1763 38.8531 79.174 38.865C79.1721 38.8769 79.1678 38.8884 79.1615 38.8987C79.1551 38.909 79.1468 38.9179 79.137 38.925C79.1248 38.9324 79.1112 38.9372 79.097 38.939ZM105.404 17.417C106.424 18.813 106.42 20.989 106.073 22.169C104.245 21.339 104.53 18.956 104.53 18.956L105.404 17.417Z" fill="#263238"/>
<path d="M110.869 34.702L111.922 35.861L113.019 37.038C113.74 37.8115 114.478 38.5684 115.234 39.308C115.6 39.673 115.965 40.039 116.357 40.361C116.748 40.683 117.088 41.026 117.472 41.322C117.856 41.618 118.203 41.882 118.543 42.108C118.799 42.28 119.068 42.432 119.347 42.562L118.788 42.474C118.622 42.454 118.455 42.4914 118.313 42.58C118.313 42.58 118.4 42.58 118.525 42.507C118.864 42.299 119.179 42.054 119.464 41.776C120.213 41.0648 120.913 40.3037 121.559 39.498C122.266 38.6386 122.951 37.761 123.613 36.866C124.291 35.9575 124.964 35.0448 125.631 34.128L125.664 34.088C125.898 33.7818 126.231 33.567 126.606 33.4808C126.982 33.3946 127.376 33.4424 127.719 33.616C128.063 33.7896 128.335 34.0779 128.489 34.4312C128.642 34.7844 128.668 35.1802 128.56 35.55C128.19 36.7051 127.761 37.8409 127.277 38.953C126.79 40.073 126.253 41.1707 125.668 42.243C125.046 43.3839 124.327 44.4689 123.518 45.486C123.036 46.0874 122.492 46.6364 121.895 47.124C121.5 47.4438 121.066 47.7138 120.605 47.928C119.927 48.2438 119.185 48.3966 118.437 48.374C118.299 48.3687 118.162 48.3503 118.027 48.319L117.874 48.287C117.073 48.0949 116.298 47.8061 115.567 47.427C114.954 47.1152 114.362 46.7648 113.794 46.378C112.752 45.6766 111.757 44.9062 110.818 44.072C109.915 43.2785 109.045 42.4478 108.211 41.582C107.799 41.1534 107.396 40.717 107.001 40.273C106.599 39.8173 106.205 39.3539 105.821 38.883C105.361 38.2133 105.164 37.3971 105.269 36.5913C105.375 35.7855 105.774 35.047 106.391 34.518C107.009 33.9894 107.8 33.7081 108.613 33.7284C109.425 33.7488 110.202 34.0692 110.792 34.628L110.869 34.702Z" fill="#E0E0E0"/>
<path d="M127.269 36.102L130.527 36.259L129.47 31.872C129.47 31.872 126.439 32.095 125.953 33.652C125.902 33.8258 125.913 34.0118 125.982 34.179L126.582 35.616C126.639 35.7538 126.733 35.8726 126.855 35.9587C126.977 36.0447 127.12 36.0944 127.269 36.102Z" fill="#FF8B7B"/>
<path d="M133.433 33.656L132.804 32.194C132.682 31.9104 132.463 31.6793 132.187 31.5415C131.91 31.4036 131.594 31.3681 131.294 31.441L129.466 31.891L130.523 36.277L132.716 35.393C132.879 35.3282 133.027 35.2314 133.152 35.1083C133.277 34.9851 133.376 34.8381 133.443 34.676C133.51 34.5141 133.544 34.3403 133.542 34.165C133.541 33.9897 133.503 33.8166 133.433 33.656Z" fill="#FF8B7B"/>
<path d="M103.166 96.854C99.708 81.642 97.569 63.301 97.569 63.301L111.75 63.074C111.75 63.074 111.553 87.791 111.582 98.144C111.619 108.911 112.365 132.604 112.365 132.604H108.062C108.062 132.604 102.508 110.161 103.166 96.854Z" fill="#263238"/>
<path d="M102.062 75.866L99.818 79.193C100.487 83.346 101.28 87.919 102.205 92.401C102.593 85.514 102.527 77.511 102.062 75.866Z" fill="black"/>
<path d="M118.104 134.714C118.104 134.714 112.178 133.317 111.732 132.378H108.442L108.464 135.862H110.496L110.807 135.54L111.323 135.862C112.968 135.862 117.34 135.796 118.375 135.427C118.395 135.295 118.381 135.16 118.333 135.035C118.286 134.91 118.207 134.799 118.104 134.714ZM89.976 96.426C91.618 81.126 91.566 70.906 93.566 63.366L106.479 63.173C106.479 63.173 101.101 87.44 98.604 97.538C96.107 107.635 91.834 132.597 91.834 132.597H87.849C87.849 132.597 86.595 108.256 89.976 96.426Z" fill="#263238"/>
<path d="M92.543 66.346C92.257 68.174 91.241 78.988 90.188 82.926C98.798 86.746 111.959 85.243 112.365 82.765C112.244 78.173 111.999 66.346 111.999 66.346H92.543Z" fill="#E0E0E0"/>
<path opacity="0.1" d="M93.022 68.353C93.623 69.327 94.3492 70.2179 95.182 71.003C95.182 71.003 93.325 70.671 93.022 68.353ZM110.328 70.901C110.822 70.1651 111.222 69.3707 111.52 68.536C111.52 68.536 111.604 70.404 110.328 70.901ZM93.102 69.732C93.301 70.464 93.594 71.167 93.976 71.822C93.6283 71.6105 93.3565 71.2944 93.1994 70.919C93.0424 70.5435 93.0083 70.128 93.102 69.732Z" fill="black"/>
<path d="M95.548 134.714C95.548 134.714 91.852 133.317 91.428 132.378H88.138L88.072 135.862H90.766L91.084 135.54L91.592 135.862C93.237 135.862 94.754 135.796 95.8 135.427C95.8249 135.296 95.8147 135.162 95.7704 135.036C95.7262 134.911 95.6494 134.8 95.548 134.714ZM93.091 32.844C97.654 32.278 104.168 32.333 108.537 33.086C109.629 33.2839 110.63 33.8199 111.4 34.6183C112.171 35.4167 112.67 36.437 112.829 37.535C113.746 44.134 112.957 55.665 112.372 67.271C102.391 70.686 91.862 67.224 91.862 67.224C91.497 64.884 92.316 57.21 92.864 53.116C92.042 48.886 90.305 44.042 89.143 38.423C89.0021 37.7945 88.9946 37.1433 89.1211 36.5117C89.2476 35.8801 89.5052 35.282 89.8773 34.7562C90.2494 34.2304 90.7277 33.7885 91.2812 33.4591C91.8348 33.1297 92.4514 32.9202 93.091 32.844Z" fill="#263238"/>
<path opacity="0.1" d="M93.091 32.844C97.654 32.278 104.168 32.333 108.537 33.086C109.629 33.2839 110.63 33.8199 111.4 34.6183C112.171 35.4167 112.67 36.437 112.829 37.535C113.746 44.134 112.957 55.665 112.372 67.271C102.391 70.686 91.862 67.224 91.862 67.224C91.497 64.884 92.316 57.21 92.864 53.116C92.042 48.886 90.305 44.042 89.143 38.423C89.0021 37.7945 88.9946 37.1433 89.1211 36.5117C89.2476 35.8801 89.5052 35.282 89.8773 34.7562C90.2494 34.2304 90.7277 33.7885 91.2813 33.4591C91.8348 33.1297 92.4514 32.9202 93.091 32.844Z" fill="white"/>
<path d="M97.606 24.133L102.797 28.392C102.125 30.179 101.913 32.047 104.845 32.753C105.576 33.722 104.479 35.422 103.177 36.083C100.099 35.382 98.327 34.555 97.131 32.913C97.507 31.627 98.107 26.776 97.606 24.133Z" fill="#FF8B7B"/>
<path opacity="0.2" d="M99.77 25.91L102.797 28.388C102.633 28.8015 102.511 29.2303 102.432 29.668C101.258 29.752 99.628 28.571 99.555 27.496C99.5281 26.9583 99.601 26.4212 99.77 25.91Z" fill="black"/>
<path d="M96.86 21.23C97.335 24.487 97.445 26.418 99.24 27.946C101.942 30.246 105.861 28.373 106.373 25.021C106.83 22.012 105.978 17.191 102.662 16.181C101.926 15.9572 101.146 15.924 100.394 16.0846C99.6419 16.2451 98.9431 16.5942 98.363 17.099C97.7829 17.6038 97.3407 18.2477 97.0778 18.9703C96.8149 19.6929 96.7399 20.4705 96.86 21.23Z" fill="#FF8B7B"/>
<path d="M96.83 22.733C97.1649 23.0956 97.5975 23.3536 98.0756 23.476C98.5537 23.5984 99.0571 23.58 99.525 23.423C98.743 22.63 99.503 19.728 98.721 18.547C100.235 18.847 106.128 19.702 106.691 17.658C107.301 15.465 104.863 13.714 103.495 13.549C103.898 14.463 103.861 15.125 102.362 14.829C100.863 14.533 94.685 13.107 95.369 16.002C93.379 16.002 93.245 18.898 94.699 20.283C95.4963 21.02 96.2102 21.8415 96.83 22.733Z" fill="#263238"/>
<path d="M95.734 15.863C94.542 15.567 94.915 14.47 95.182 14.357C94.067 14.627 93.662 15.724 95.007 16.229C96.352 16.733 95.734 15.863 95.734 15.863Z" fill="#263238"/>
<path d="M95.943 23.23C96.054 23.5867 96.2344 23.9179 96.474 24.2046C96.7136 24.4912 97.0076 24.7276 97.339 24.9C98.235 25.357 98.885 24.604 98.801 23.661C98.732 22.809 98.187 21.548 97.207 21.468C96.9916 21.4575 96.777 21.5012 96.5829 21.595C96.3887 21.6888 96.2211 21.8297 96.0954 22.005C95.9697 22.1802 95.8899 22.3841 95.8633 22.5981C95.8367 22.8121 95.8641 23.0293 95.943 23.23Z" fill="#FF8B7B"/>
<path d="M101.434 21.347C101.456 21.614 101.616 21.819 101.799 21.804C101.982 21.789 102.099 21.555 102.077 21.292C102.055 21.029 101.894 20.82 101.711 20.835C101.529 20.85 101.412 21.08 101.434 21.347ZM104.621 21.27C104.643 21.537 104.804 21.742 104.987 21.724C105.17 21.705 105.283 21.479 105.261 21.212C105.239 20.945 105.078 20.744 104.896 20.758C104.713 20.773 104.6 21.003 104.621 21.27Z" fill="#263238"/>
<path d="M103.974 21.628C104.359 22.4141 104.851 23.1428 105.437 23.793C105.002 24.275 104.183 24.158 104.183 24.158L103.974 21.628Z" fill="#FF5652"/>
<path d="M100.94 20.499C100.915 20.506 100.888 20.506 100.863 20.499C100.844 20.4916 100.826 20.4804 100.811 20.466C100.796 20.4516 100.784 20.4343 100.776 20.4151C100.768 20.3959 100.763 20.3753 100.763 20.3545C100.763 20.3337 100.768 20.3131 100.776 20.294C100.863 20.059 101.005 19.8482 101.19 19.6791C101.375 19.51 101.597 19.3876 101.839 19.322C101.88 19.3137 101.923 19.322 101.958 19.3451C101.993 19.3683 102.017 19.4044 102.025 19.4455C102.034 19.4866 102.026 19.5294 102.002 19.5643C101.979 19.5993 101.943 19.6237 101.902 19.632C101.71 19.6861 101.534 19.7851 101.389 19.9207C101.243 20.0563 101.132 20.2248 101.064 20.412C101.053 20.4355 101.035 20.4558 101.014 20.471C100.992 20.4865 100.967 20.4961 100.94 20.499ZM106.471 20.075C106.445 20.0752 106.419 20.0686 106.396 20.0558C106.373 20.043 106.354 20.0245 106.34 20.002C106.242 19.8313 106.106 19.6862 105.941 19.5788C105.776 19.4713 105.589 19.4046 105.393 19.384C105.362 19.3835 105.332 19.3737 105.306 19.3559C105.281 19.3381 105.261 19.313 105.25 19.284C105.242 19.2646 105.239 19.2439 105.239 19.223C105.241 19.1807 105.259 19.1408 105.29 19.112C105.321 19.0831 105.362 19.0677 105.404 19.069C105.652 19.0915 105.89 19.173 106.1 19.3066C106.31 19.4402 106.485 19.6221 106.61 19.837C106.631 19.8726 106.637 19.9148 106.628 19.955C106.618 19.9953 106.594 20.0304 106.559 20.053C106.533 20.0704 106.502 20.0782 106.471 20.075Z" fill="#263238"/>
<path d="M97.13 32.914C97.13 32.914 102.457 41.008 104.483 46.718C106.479 40.018 106.709 34.654 104.848 32.753C104.249 33.51 101.836 34.533 97.131 32.913L97.13 32.914ZM95.314 38.895L94.798 40.357L94.287 41.878C93.9524 42.8803 93.639 43.8895 93.347 44.905C93.201 45.405 93.073 45.903 92.956 46.393C92.839 46.883 92.726 47.369 92.645 47.833C92.565 48.298 92.503 48.747 92.462 49.149C92.442 49.457 92.442 49.766 92.462 50.074L92.272 49.541C92.119 49.251 91.962 49.175 91.954 49.175C91.947 49.175 92.005 49.248 92.119 49.329C92.459 49.529 92.821 49.691 93.197 49.811C94.169 50.138 95.162 50.399 96.169 50.593C97.24 50.805 98.344 50.959 99.459 51.142C100.575 51.325 101.722 51.452 102.826 51.61H102.878C103.262 51.6667 103.614 51.8573 103.872 52.1481C104.13 52.4389 104.276 52.8113 104.287 53.1997C104.297 53.5881 104.169 53.9676 103.927 54.2713C103.685 54.575 103.343 54.7835 102.962 54.86C101.771 55.086 100.569 55.2519 99.361 55.357C98.1456 55.4682 96.9255 55.5206 95.705 55.514C94.406 55.5116 93.1096 55.3979 91.83 55.174C91.0785 55.0338 90.3433 54.817 89.636 54.527C89.165 54.3328 88.7205 54.0798 88.313 53.774C87.7122 53.3301 87.2238 52.7517 86.887 52.085C86.8248 51.9607 86.7746 51.8308 86.737 51.697L86.697 51.547C86.4836 50.7513 86.3671 49.9327 86.35 49.109C86.332 48.422 86.358 47.735 86.427 47.051C86.543 45.801 86.745 44.562 87.03 43.341C87.2929 42.1673 87.6075 41.0059 87.973 39.86C88.3316 38.7121 88.7427 37.5812 89.205 36.471C89.535 35.6833 90.1585 35.0548 90.9435 34.7184C91.7285 34.382 92.6135 34.364 93.4115 34.6683C94.2095 34.9725 94.858 35.5752 95.2197 36.3489C95.5815 37.1225 95.6282 38.0065 95.35 38.814L95.314 38.895Z" fill="#E0E0E0"/>
<path d="M103.346 52.081L106.577 52.483L104.793 56.618C104.793 56.618 101.843 55.888 101.631 54.264C101.61 54.0844 101.653 53.9032 101.752 53.752L102.585 52.44C102.665 52.3143 102.779 52.2138 102.913 52.1503C103.048 52.0867 103.198 52.0627 103.346 52.081ZM109.001 55.543L108.131 56.889C107.962 57.1471 107.707 57.337 107.411 57.4252C107.115 57.5134 106.798 57.4942 106.515 57.371L104.793 56.618L106.577 52.483L108.592 53.73C108.739 53.8207 108.867 53.94 108.967 54.0808C109.068 54.2216 109.139 54.3812 109.177 54.55C109.215 54.7189 109.219 54.8937 109.188 55.0641C109.158 55.2346 109.095 55.3974 109.001 55.543Z" fill="#FF8B7B"/>
<path d="M97.39 31.656C96.7108 31.7637 96.0882 32.0986 95.624 32.606C97.0715 34.5384 99.1353 35.9189 101.474 36.519C101.306 35.959 101.81 34.325 102.366 33.74C100.322 33.437 97.39 31.656 97.39 31.656Z" fill="#FAFAFA"/>
<path d="M103.006 31.857C103.699 31.9833 104.358 32.2538 104.94 32.651C104.94 32.651 106.987 34.936 104.574 36.226C104.738 35.666 103.477 34.176 102.348 33.74C104.388 33.437 103.006 31.857 103.006 31.857Z" fill="#FAFAFA"/>
<path d="M102.574 35.042C100.958 34.175 98.959 33.236 99.514 34.752C100.07 36.27 99.335 36.796 100.059 37.312C100.783 37.827 102.253 36.412 102.739 36.215C103.225 36.018 102.574 35.042 102.574 35.042ZM103.719 35.03C104.951 34.2 106.493 33.301 106.219 34.782C105.945 36.262 106.625 36.778 106.087 37.279C105.55 37.779 104.168 36.379 103.729 36.182C103.291 35.985 103.719 35.03 103.719 35.03Z" fill="#8A1114"/>
<path d="M102.355 34.925C102.72 34.705 103.612 34.428 104.055 35.023C104.497 35.619 104.355 36.617 103.744 36.738C103.526 36.7819 103.3 36.7661 103.09 36.6922C102.88 36.6182 102.694 36.489 102.552 36.318C102.688 36.0997 102.743 35.8404 102.707 35.5857C102.671 35.331 102.546 35.0971 102.355 34.925Z" fill="#8A1114"/>
<path d="M92.056 132.714L87.622 132.838L87.388 130.327L92.539 130.634L92.056 132.714ZM112.522 132.707L107.733 132.838L107.202 130.663L112.551 130.144L112.522 132.707Z" fill="black"/>
<path d="M102.084 51.23C99.8447 50.5676 97.5358 50.1686 95.204 50.041C94.707 50.071 94.517 61.305 94.557 65.901C94.557 66.521 101.708 66.397 103.536 66.116C103.638 64.833 103.66 55.466 104.135 52.538C104.172 52.3089 104.13 52.0741 104.018 51.8713C103.905 51.6684 103.728 51.5092 103.514 51.419C103.061 51.2364 102.569 51.1721 102.084 51.23Z" fill="white"/>
<path d="M139.516 33.247H119.219V33.824H139.516V33.247ZM139.092 33.824H119.643L120.389 34.23H138.35L139.092 33.824Z" fill="#8A1114"/>
<path opacity="0.2" d="M139.092 33.824H119.643L120.389 34.23H138.35L139.092 33.824Z" fill="black"/>
<path d="M130.205 25.087C130.205 25.2107 130.178 25.3329 130.125 25.4448C130.072 25.5567 129.996 25.6556 129.9 25.7344C129.805 25.8132 129.693 25.87 129.573 25.9007C129.454 25.9314 129.328 25.9353 129.207 25.912C129.044 25.8806 128.894 25.8015 128.776 25.6846C128.659 25.5678 128.578 25.4185 128.545 25.2558C128.513 25.0932 128.529 24.9244 128.593 24.7711C128.656 24.6178 128.764 24.4869 128.902 24.395C129.028 24.3111 129.174 24.2627 129.325 24.2552C129.476 24.2476 129.626 24.2811 129.76 24.352C129.894 24.423 130.006 24.5288 130.084 24.6582C130.162 24.7876 130.204 24.9357 130.205 25.087ZM138.142 30.567C137.578 28.8214 136.506 27.2838 135.063 26.151L135.29 25.861C136.791 27.0402 137.906 28.6405 138.493 30.457L138.142 30.567ZM133.795 25.31C133.385 25.0838 132.959 24.8896 132.519 24.729L132.643 24.385C133.1 24.557 133.544 24.7636 133.97 25.003L133.795 25.31Z" fill="#8A1114"/>
<path d="M129.368 25.087C127.166 25.087 125.054 25.9616 123.497 27.5185C121.94 29.0754 121.065 31.1871 121.065 33.389H137.67C137.67 31.1872 136.795 29.0755 135.238 27.5186C133.681 25.9617 131.57 25.087 129.368 25.087Z" fill="#8A1114"/>
<path opacity="0.3" d="M122.21 32.647H124.356C124.43 32.6455 124.501 32.6185 124.558 32.5706C124.614 32.5227 124.652 32.4568 124.666 32.384C125.098 30.11 126.454 28.128 128.611 26.407C128.66 26.3679 128.696 26.3136 128.711 26.2524C128.726 26.1913 128.721 26.1268 128.696 26.069C128.672 26.0112 128.629 25.9629 128.575 25.9315C128.52 25.9 128.457 25.8872 128.395 25.895C126.764 26.1102 125.247 26.8505 124.074 28.0041C122.901 29.1576 122.135 30.6617 121.892 32.289C121.886 32.3339 121.89 32.3795 121.904 32.4228C121.917 32.466 121.939 32.506 121.969 32.54C121.999 32.5742 122.036 32.6015 122.078 32.6199C122.119 32.6384 122.164 32.6476 122.21 32.647Z" fill="white"/>
<path d="M102.954 25.109C103.125 25.116 103.297 25.108 103.466 25.083C103.477 25.0808 103.488 25.0765 103.498 25.0701C103.507 25.0638 103.516 25.0556 103.522 25.046C103.535 25.0269 103.54 25.0037 103.536 24.981C103.53 24.9572 103.515 24.9365 103.495 24.9224C103.475 24.9083 103.45 24.9018 103.426 24.904C103.044 24.9609 102.654 24.9307 102.286 24.8155C101.917 24.7004 101.58 24.5033 101.298 24.239C101.286 24.2259 101.27 24.2169 101.252 24.2133C101.235 24.2097 101.216 24.2117 101.2 24.219C101.189 24.2238 101.179 24.2306 101.17 24.239C101.154 24.2566 101.146 24.2794 101.146 24.303C101.146 24.326 101.154 24.349 101.17 24.367C101.654 24.8245 102.289 25.0885 102.954 25.109Z" fill="#263238"/>
<path opacity="0.9" d="M197.479 93.74C196.706 93.7475 195.939 93.5966 195.227 93.2967C194.514 92.9968 193.87 92.5541 193.335 91.996C192.809 91.447 192.396 90.8001 192.119 90.092C191.828 89.3421 191.682 88.5442 191.687 87.74C191.687 86.908 191.831 86.13 192.119 85.404C192.396 84.6959 192.809 84.049 193.335 83.5C193.856 82.9575 194.482 82.5274 195.175 82.236C195.902 81.922 196.687 81.7639 197.479 81.772C198.311 81.772 199.079 81.927 199.783 82.236C200.476 82.5274 201.102 82.9575 201.623 83.5C202.157 84.0456 202.576 84.6931 202.855 85.404C203.147 86.148 203.293 86.9409 203.287 87.74C203.287 88.572 203.143 89.356 202.855 90.092C202.576 90.8029 202.157 91.4504 201.623 91.996C201.088 92.5541 200.444 92.9968 199.731 93.2967C199.019 93.5966 198.252 93.7475 197.479 93.74ZM197.479 92.668C198.117 92.677 198.749 92.5517 199.335 92.3C199.882 92.0499 200.372 91.6905 200.775 91.244C201.183 90.7805 201.498 90.2427 201.703 89.66C201.93 89.0455 202.044 88.395 202.039 87.74C202.044 87.085 201.93 86.4344 201.703 85.82C201.503 85.2447 201.187 84.7165 200.775 84.268C200.374 83.823 199.883 83.4685 199.335 83.228C198.752 82.966 198.118 82.8349 197.479 82.844C196.807 82.844 196.188 82.972 195.623 83.228C195.075 83.4685 194.584 83.823 194.183 84.268C193.778 84.705 193.463 85.223 193.239 85.82C193.023 86.4368 192.914 87.0863 192.919 87.74C192.919 88.423 193.026 89.063 193.239 89.66C193.463 90.257 193.778 90.785 194.183 91.244C194.588 91.692 195.068 92.044 195.623 92.3C196.21 92.5496 196.842 92.6749 197.479 92.668ZM210.05 89.34H215.602L215.938 90.316H209.57L210.05 89.34ZM216.642 93.5L212.77 83.292L208.866 93.5H207.682L212.146 82.012H213.458L217.906 93.5H216.642ZM227.272 89.276C227.272 90.14 227.117 90.903 226.808 91.564C226.509 92.225 226.083 92.743 225.528 93.116C224.984 93.479 224.333 93.66 223.576 93.66C222.969 93.6664 222.374 93.4939 221.864 93.164C221.352 92.834 220.952 92.369 220.664 91.772V96.588H219.544V85.068H220.584V86.892C220.872 86.262 221.283 85.777 221.816 85.436C222.337 85.0878 222.95 84.9038 223.576 84.908C224.323 84.908 224.973 85.095 225.528 85.468C226.083 85.831 226.509 86.343 226.808 87.004C227.117 87.654 227.272 88.412 227.272 89.276ZM226.136 89.276C226.136 88.209 225.88 87.377 225.368 86.78C224.867 86.183 224.205 85.884 223.384 85.884C222.872 85.884 222.408 86.017 221.992 86.284C221.576 86.551 221.245 86.934 221 87.436C220.765 87.937 220.648 88.551 220.648 89.276C220.648 89.969 220.765 90.572 221 91.084C221.235 91.596 221.56 91.991 221.976 92.268C222.393 92.5456 222.883 92.6906 223.384 92.684C224.205 92.684 224.867 92.385 225.368 91.788C225.88 91.191 226.136 90.353 226.136 89.276ZM236.803 89.276C236.803 90.14 236.649 90.903 236.339 91.564C236.041 92.225 235.614 92.743 235.059 93.116C234.515 93.479 233.865 93.66 233.107 93.66C232.5 93.6664 231.905 93.4939 231.395 93.164C230.883 92.834 230.483 92.369 230.195 91.772V96.588H229.075V85.068H230.115V86.892C230.403 86.262 230.814 85.777 231.347 85.436C231.868 85.0879 232.481 84.904 233.107 84.908C233.854 84.908 234.505 85.095 235.059 85.468C235.614 85.831 236.041 86.343 236.339 87.004C236.649 87.654 236.803 88.412 236.803 89.276ZM235.667 89.276C235.667 88.209 235.411 87.377 234.899 86.78C234.398 86.183 233.737 85.884 232.915 85.884C232.403 85.884 231.939 86.017 231.523 86.284C231.107 86.551 230.777 86.934 230.531 87.436C230.297 87.937 230.179 88.551 230.179 89.276C230.179 89.969 230.297 90.572 230.531 91.084C230.766 91.596 231.091 91.991 231.507 92.268C231.923 92.545 232.393 92.684 232.915 92.684C233.737 92.684 234.398 92.385 234.899 91.788C235.411 91.191 235.667 90.353 235.667 89.276ZM241.326 89.276C241.326 88.412 241.476 87.655 241.774 87.004C242.084 86.343 242.516 85.831 243.07 85.468C243.625 85.095 244.281 84.908 245.038 84.908C245.668 84.908 246.238 85.078 246.75 85.42C247.262 85.75 247.657 86.22 247.934 86.828V82.012H249.054V93.5H248.014V91.724C247.741 92.3025 247.315 92.7951 246.782 93.148C246.266 93.4907 245.658 93.6692 245.038 93.66C244.281 93.66 243.625 93.479 243.07 93.116C242.516 92.743 242.084 92.226 241.774 91.564C241.476 90.903 241.326 90.14 241.326 89.276ZM242.462 89.276C242.462 90.353 242.713 91.191 243.214 91.788C243.716 92.385 244.377 92.684 245.198 92.684C245.753 92.684 246.233 92.545 246.638 92.268C247.054 91.991 247.374 91.596 247.598 91.084C247.833 90.561 247.95 89.948 247.95 89.244C247.95 88.54 247.828 87.937 247.582 87.436C247.348 86.935 247.022 86.551 246.606 86.284C246.201 86.017 245.732 85.884 245.198 85.884C244.377 85.884 243.716 86.183 243.214 86.78C242.713 87.377 242.462 88.21 242.462 89.276ZM254.858 93.66C254.282 93.66 253.748 93.553 253.258 93.34C252.772 93.1301 252.335 92.8192 251.978 92.428C251.617 92.0193 251.335 91.5473 251.146 91.036C250.949 90.4705 250.851 89.8749 250.858 89.276C250.858 88.646 250.954 88.066 251.146 87.532C251.348 86.999 251.626 86.54 251.978 86.156C252.335 85.7648 252.772 85.4539 253.258 85.244C253.763 85.0276 254.308 84.9186 254.858 84.924C255.444 84.924 255.983 85.031 256.474 85.244C256.964 85.457 257.386 85.761 257.738 86.156C258.1 86.54 258.378 86.999 258.57 87.532C258.772 88.065 258.874 88.647 258.874 89.276C258.881 89.8763 258.778 90.4727 258.57 91.036C258.389 91.551 258.106 92.0243 257.738 92.428C257.388 92.8207 256.957 93.132 256.474 93.34C255.983 93.553 255.444 93.66 254.858 93.66ZM254.858 92.7C255.412 92.7 255.903 92.561 256.33 92.284C256.775 91.986 257.13 91.5707 257.354 91.084C257.61 90.572 257.738 89.969 257.738 89.276C257.738 88.583 257.61 87.986 257.354 87.484C257.129 87.0063 256.774 86.6016 256.33 86.316C255.891 86.0353 255.379 85.8905 254.858 85.9C254.337 85.8933 253.826 86.0378 253.386 86.316C252.947 86.6073 252.593 87.0105 252.362 87.484C252.116 87.985 251.994 88.583 251.994 89.276C251.994 89.969 252.116 90.572 252.362 91.084C252.618 91.596 252.959 91.996 253.386 92.284C253.826 92.5622 254.337 92.7067 254.858 92.7ZM269.261 93.74C268.439 93.74 267.677 93.59 266.973 93.292C266.279 93.0003 265.649 92.5764 265.117 92.044C264.587 91.5008 264.169 90.8595 263.885 90.156C263.592 89.3902 263.445 88.576 263.453 87.756C263.453 86.903 263.591 86.119 263.868 85.404C264.144 84.6989 264.552 84.0528 265.069 83.5C265.574 82.95 266.19 82.5137 266.877 82.22C267.607 81.9162 268.391 81.7638 269.181 81.772C270.183 81.772 271.063 81.959 271.821 82.332C272.554 82.6866 273.199 83.2005 273.709 83.836C274.207 84.4594 274.572 85.1782 274.781 85.948H273.421C273.263 85.3766 272.991 84.8431 272.621 84.38C272.234 83.9005 271.741 83.5171 271.181 83.26C270.605 82.983 269.927 82.844 269.149 82.844C268.274 82.844 267.501 83.057 266.829 83.484C266.157 83.9 265.629 84.476 265.245 85.212C264.871 85.948 264.685 86.802 264.685 87.772C264.685 88.711 264.877 89.553 265.261 90.3C265.625 91.0256 266.185 91.6352 266.877 92.06C267.57 92.487 268.375 92.7 269.293 92.7C270.125 92.7 270.85 92.54 271.469 92.22C272.08 91.8962 272.593 91.4158 272.957 90.828C273.341 90.231 273.581 89.532 273.677 88.732H269.165V87.756H274.925C274.925 88.663 274.786 89.484 274.509 90.22C274.26 90.9269 273.867 91.575 273.357 92.124C272.853 92.6482 272.242 93.0575 271.565 93.324C270.882 93.601 270.114 93.74 269.261 93.74ZM281.963 93.5V91.964C281.724 92.4785 281.341 92.9122 280.859 93.212C280.368 93.511 279.792 93.66 279.131 93.66C278.256 93.66 277.557 93.436 277.035 92.988C276.512 92.529 276.251 91.921 276.251 91.164C276.251 90.343 276.576 89.724 277.227 89.308C277.877 88.881 278.843 88.668 280.123 88.668C280.379 88.668 280.629 88.673 280.875 88.684C281.12 88.694 281.445 88.721 281.851 88.764V88.044C281.851 87.34 281.669 86.791 281.307 86.396C280.955 86.001 280.459 85.804 279.819 85.804C279.136 85.804 278.592 86.007 278.187 86.412C277.781 86.807 277.573 87.345 277.562 88.028H276.539C276.549 87.398 276.693 86.855 276.971 86.396C277.248 85.926 277.627 85.564 278.107 85.308C278.597 85.041 279.163 84.908 279.803 84.908C280.795 84.908 281.563 85.18 282.107 85.724C282.651 86.268 282.923 87.031 282.923 88.012V93.5H281.963ZM277.323 91.132C277.323 91.644 277.504 92.06 277.867 92.38C278.229 92.69 278.704 92.844 279.291 92.844C280.08 92.844 280.704 92.609 281.163 92.14C281.621 91.66 281.851 91.025 281.851 90.236V89.484C281.293 89.4307 280.732 89.404 280.171 89.404C279.221 89.404 278.507 89.548 278.027 89.836C277.557 90.113 277.323 90.546 277.323 91.132ZM286.399 88.988V93.5H285.279V85.068H286.319V86.988C286.609 86.3791 287.063 85.8636 287.631 85.5C288.197 85.1297 288.859 84.9348 289.535 84.94V86.108C288.985 86.0796 288.436 86.1838 287.935 86.412C287.474 86.6282 287.085 86.9726 286.815 87.404C286.537 87.841 286.399 88.369 286.399 88.988ZM294.04 93.676C293.293 93.676 292.637 93.489 292.072 93.116C291.507 92.743 291.064 92.226 290.744 91.564C290.424 90.903 290.264 90.14 290.264 89.276C290.264 88.423 290.424 87.671 290.744 87.02C291.064 86.359 291.507 85.841 292.072 85.468C292.648 85.095 293.304 84.908 294.04 84.908C294.652 84.8989 295.257 85.0419 295.8 85.324C296.323 85.601 296.749 85.996 297.08 86.508C297.421 87.02 297.645 87.628 297.752 88.332H296.616C296.488 87.564 296.195 86.967 295.736 86.54C295.288 86.103 294.723 85.884 294.04 85.884C293.517 85.884 293.053 86.028 292.648 86.316C292.253 86.604 291.944 86.999 291.72 87.5C291.507 88.001 291.4 88.593 291.4 89.276C291.4 89.959 291.507 90.561 291.72 91.084C291.944 91.596 292.253 91.996 292.648 92.284C293.053 92.561 293.517 92.7 294.04 92.7C294.733 92.7 295.304 92.487 295.752 92.06C296.2 91.623 296.488 91.015 296.616 90.236H297.752C297.656 90.951 297.437 91.564 297.096 92.076C296.779 92.5751 296.338 92.9831 295.816 93.26C295.293 93.537 294.701 93.676 294.04 93.676ZM295.624 95.388C295.624 95.772 295.469 96.081 295.16 96.316C294.851 96.551 294.461 96.668 293.992 96.668C293.523 96.668 293.123 96.551 292.792 96.316C292.472 96.081 292.28 95.746 292.216 95.308H293C293.053 95.553 293.165 95.735 293.336 95.852C293.507 95.98 293.72 96.044 293.976 96.044C294.211 96.044 294.397 95.974 294.536 95.836C294.607 95.7781 294.664 95.7049 294.703 95.6217C294.742 95.5386 294.761 95.4477 294.76 95.356C294.76 95.121 294.691 94.935 294.552 94.796C294.409 94.6602 294.232 94.5661 294.04 94.524C293.815 94.4701 293.581 94.4592 293.352 94.492L293.72 93.34H294.392L294.136 94.092C294.573 94.124 294.931 94.257 295.208 94.492C295.485 94.727 295.624 95.025 295.624 95.388ZM302.811 93.66C302.235 93.66 301.701 93.553 301.211 93.34C300.725 93.1301 300.288 92.8192 299.931 92.428C299.57 92.0193 299.288 91.5473 299.099 91.036C298.902 90.4705 298.804 89.8749 298.811 89.276C298.811 88.646 298.907 88.066 299.099 87.532C299.301 86.999 299.579 86.54 299.931 86.156C300.288 85.7648 300.725 85.4539 301.211 85.244C301.716 85.0276 302.261 84.9186 302.811 84.924C303.397 84.924 303.936 85.031 304.427 85.244C304.917 85.457 305.339 85.761 305.691 86.156C306.053 86.54 306.331 86.999 306.523 87.532C306.725 88.065 306.827 88.647 306.827 89.276C306.834 89.8763 306.731 90.4727 306.523 91.036C306.342 91.551 306.059 92.0243 305.691 92.428C305.341 92.8207 304.91 93.132 304.427 93.34C303.936 93.553 303.397 93.66 302.811 93.66ZM302.811 92.7C303.365 92.7 303.856 92.561 304.283 92.284C304.728 91.986 305.083 91.5707 305.307 91.084C305.563 90.572 305.691 89.969 305.691 89.276C305.691 88.583 305.563 87.986 305.307 87.484C305.082 87.0063 304.727 86.6016 304.283 86.316C303.844 86.0353 303.332 85.8905 302.811 85.9C302.29 85.8933 301.779 86.0378 301.339 86.316C300.9 86.6073 300.546 87.0105 300.315 87.484C300.069 87.985 299.947 88.583 299.947 89.276C299.947 89.969 300.069 90.572 300.315 91.084C300.571 91.596 300.912 91.996 301.339 92.284C301.779 92.5622 302.29 92.7067 302.811 92.7ZM309.758 93.5H308.638V85.068H309.678V86.652C309.966 86.108 310.345 85.682 310.814 85.372C311.296 85.0622 311.857 84.9009 312.43 84.908C313.091 84.908 313.651 85.078 314.11 85.42C314.579 85.761 314.899 86.241 315.07 86.86C315.309 86.2841 315.709 85.7896 316.222 85.436C316.74 85.0822 317.355 84.8977 317.982 84.908C318.857 84.908 319.545 85.185 320.046 85.74C320.558 86.284 320.814 87.047 320.814 88.028V93.5H319.71V88.396C319.71 87.586 319.529 86.966 319.166 86.54C318.814 86.103 318.297 85.884 317.614 85.884C317.198 85.8807 316.791 86.0034 316.446 86.236C316.085 86.47 315.792 86.7958 315.598 87.18C315.395 87.575 315.294 88.033 315.294 88.556V93.5H314.174V88.396C314.174 87.586 313.998 86.966 313.646 86.54C313.294 86.103 312.771 85.884 312.078 85.884C311.651 85.884 311.257 86.001 310.894 86.236C310.535 86.468 310.247 86.7947 310.062 87.18C309.859 87.575 309.758 88.033 309.758 88.556V93.5Z" fill="white"/>
<path d="M196.346 64.6731C196.346 63.5192 200.615 63.5192 200.615 64.6731C200.615 68.9808 198.385 71.9808 194.308 71.9808C190.038 71.9808 187.115 69.3269 187 65.25V65.1731V51.9038V51.8269C187.115 47.7115 190.192 44.9808 194.308 45.0577C198.615 45.1346 200.615 48.1346 200.615 52.4038C200.615 53.5577 196.346 53.5577 196.346 52.4038C196.346 51.9808 196.346 51.6346 196.269 51.25C196.038 48.9808 193.308 49.4038 192.731 49.7115C191.615 50.25 191.385 51.5962 191.385 52.5192V64.5577C191.423 65.4808 191.615 66.8269 192.731 67.3654C193.308 67.6731 196.038 68.0962 196.269 65.8654C196.346 65.4808 196.346 65.0962 196.346 64.6731ZM217.808 50.4808C217.923 50.9038 217.846 66.5192 217.692 67.0962C217 70.0577 214.923 71.9808 211.654 71.9808H210.654C207.423 71.9808 205.346 70.0577 204.615 67.0962C204.462 66.5192 204.423 50.9038 204.5 50.4808C205.038 47.25 207.038 45.1346 210.654 45.0577H211.654C215.308 45.1346 217.269 47.25 217.808 50.4808ZM210.077 67.3654C210.731 67.7115 211.577 67.7115 212.231 67.3654C213.346 66.8269 213.538 65.4808 213.577 64.5577V52.5192C213.577 51.5962 213.346 50.25 212.231 49.7115C211.577 49.3654 210.731 49.3654 210.077 49.7115C208.962 50.25 208.731 51.5962 208.731 52.5192V64.5577C208.769 65.4808 208.962 66.8269 210.077 67.3654ZM244.385 46.5192V71.1346C244.385 72.2885 240.038 72.2885 240.038 71.1346V58.3654C235.577 70.7885 235.5 70.9423 235.423 71.0962C234.923 72.25 232 72.25 231.5 71.0962C231.423 70.9423 231.346 70.7885 226.846 58.2115V71.1346C226.846 72.2885 222.462 72.2885 222.462 71.1346V46.5962V46.5192C222.462 44.6346 226.346 44.7115 226.731 45.75L233.462 63.4423L240.077 45.75C240.462 44.7115 244.385 44.5962 244.385 46.5192ZM259.577 45.8654L263.577 70.2885C263.885 72.2115 259.538 72.4038 259.308 71.0192L258.538 66.4038H254.038L253.269 71.0192C253.077 72.1731 248.692 72.2115 249 70.2885L253.038 45.8654C253.231 44.7115 259.423 44.8269 259.577 45.8654ZM257.808 62.0577L256.308 52.8654L254.769 62.0577H257.808ZM278.077 59.6731V45.8654C278.077 44.7115 282.308 44.7115 282.308 45.8654V70.3654C282.308 72.2885 278.615 72.3269 278.231 71.3654L272.462 57.2115V71.1346C272.462 72.2885 268.192 72.2885 268.192 71.1346V47.0962C268.192 44.0962 271.846 45.0192 272.423 46.1731L278.077 59.6731ZM290 45.0577H295.192C301.615 45.0577 301.808 71.9808 295.577 71.9808H290.115C287.692 71.9808 287.692 71.9808 287.692 69.8654V47.1731C287.692 45.0962 287.692 45.0962 290 45.0577ZM293.615 49.4038H293.577C292.038 49.4038 292.038 49.4038 292.038 50.8654V66.1731C292.038 67.5962 292.038 67.5962 293.654 67.5962H293.885C296.385 67.5962 296.269 49.4038 293.615 49.4038ZM309.885 67.5962H315.385C316.538 67.5962 316.538 71.9808 315.385 71.9808H307.962C305.5 71.9808 305.5 71.9808 305.5 69.9038V47.1346C305.5 45.0577 305.5 45.0577 307.846 45.0192L315.346 45.0577C316.5 45.0577 316.5 49.4423 315.346 49.4423H309.885V56.4423H313.731C314.885 56.4423 314.885 60.8654 313.731 60.8654H309.885V67.5962ZM321.654 71.1346V45.8654C321.654 44.7115 326.038 44.7115 326.038 45.8654V71.1346C326.038 72.2885 321.654 72.2885 321.654 71.1346Z" fill="white"/>
<path opacity="0.4" d="M87.395 140C126.543 140 158.278 138.147 158.278 135.862C158.278 133.576 126.543 131.723 87.395 131.723C48.248 131.723 16.5128 133.576 16.5128 135.862C16.5128 138.147 48.248 140 87.395 140Z" fill="#8A1114"/>
<path d="M66.6997 27.4339C63.8519 29.7809 61.0698 33.5647 62.7003 37.6702C64.3308 41.7757 74.7645 42.1888 76.958 40.4998C79.8095 38.3063 77.2906 28.538 75.0679 28.4795C74.8997 24.8566 69.0797 25.4707 66.6997 27.4339Z" fill="#263238"/>
<path d="M62.7113 66.9714C62.7113 66.9714 63.8555 87.7876 65.1168 99.0585C65.2448 109.642 67.6759 133.551 67.6759 133.551H70.3483C70.7979 121.688 74.0991 110.611 71.9056 100.148C77.0238 79.6023 73.5179 66.9861 73.5179 66.9861L62.7113 66.9714Z" fill="#FFB573"/>
<path d="M65.6213 66.9861C65.6213 66.9861 71.1233 90.0762 72.6295 99.9103C74.2161 110.242 76.5777 130.29 76.4681 133.544H78.7749C78.7749 133.544 82.6501 113.261 79.0637 100.276C82.0213 71.0294 74.7242 67.008 74.7242 67.008L65.6213 66.9861Z" fill="#FFB573"/>
<path d="M52.4275 40.2804C52.2556 39.0338 49.9671 38.9278 49.9671 38.9278L48.8703 38.3757C48.6778 38.2579 48.447 38.2194 48.2267 38.2685C48.0064 38.3176 47.8137 38.4505 47.6895 38.6389L47.3239 39.2458C47.2175 39.4847 47.1998 39.7537 47.2742 40.0044C47.3487 40.2551 47.5102 40.471 47.7297 40.6131L48.0624 40.8544C48.6284 41.2589 49.298 41.4935 49.9927 41.5307L51.0053 41.5855C51.2277 41.5983 51.4506 41.5711 51.6634 41.5051C51.9153 41.4259 52.1302 41.2584 52.2686 41.0334C52.407 40.8084 52.4595 40.541 52.4165 40.2804H52.4275Z" fill="#FFB573"/>
<path d="M64.4807 47.5737C64.3418 47.7163 64.2687 47.7857 64.1663 47.8771L63.8775 48.133C63.6874 48.2939 63.49 48.4438 63.2962 48.5937C62.9014 48.8861 62.4992 49.1567 62.0861 49.4126C61.2571 49.9115 60.3862 50.3372 59.4832 50.6848C57.6848 51.3844 55.7755 51.7559 53.8459 51.7815H53.6778C53.5897 51.7797 53.5017 51.7723 53.4145 51.7596C53.2428 51.7345 53.0747 51.6891 52.9137 51.6243C52.6426 51.5126 52.3947 51.3514 52.1825 51.1491C51.9078 50.8792 51.6837 50.5622 51.5208 50.2132C51.2928 49.7189 51.1223 49.2 51.0127 48.6668C50.8188 47.7491 50.6966 46.8177 50.6471 45.8811C50.5481 44.0871 50.5848 42.2882 50.7568 40.4997C50.7771 40.2998 50.8703 40.1144 51.0184 39.9787C51.1666 39.843 51.3595 39.7666 51.5604 39.7639C51.7613 39.7612 51.9562 39.8324 52.108 39.964C52.2598 40.0957 52.3579 40.2785 52.3836 40.4778V40.4997C52.581 42.2033 52.8077 43.9325 53.1148 45.5886C53.2501 46.3906 53.437 47.1832 53.6741 47.9612C53.7685 48.2795 53.8985 48.586 54.0616 48.8752C54.1274 48.9812 54.1932 49.0324 54.164 48.9958C54.1156 48.9435 54.0554 48.9034 53.9885 48.8788C53.9292 48.8519 53.8665 48.8334 53.8021 48.824H53.7034C54.4893 48.7522 55.2689 48.6227 56.0358 48.4365C56.7957 48.2467 57.541 48.0023 58.2658 47.7053C58.9876 47.3964 59.6833 47.0296 60.346 46.6086C60.6786 46.4038 61.0004 46.1881 61.3111 45.9578C61.4646 45.8445 61.6109 45.7275 61.7571 45.6105L61.9691 45.435L62.13 45.2925L62.225 45.2084C62.5439 44.9228 62.9616 44.7731 63.3892 44.7911C63.8168 44.8091 64.2205 44.9934 64.5142 45.3048C64.8079 45.6161 64.9684 46.0298 64.9614 46.4578C64.9545 46.8857 64.7807 47.294 64.477 47.5956L64.4807 47.5737Z" fill="#FFB573"/>
<path d="M66.2793 43.5158C63.3876 43.0332 60.3533 45 58.7813 46.6013C57.9697 49.0434 60.569 52.0119 60.569 52.0119C60.569 52.0119 64.2723 49.738 65.6067 48.1843C66.941 46.6305 67.9464 43.7936 66.2793 43.5158Z" fill="#E0E0E0"/>
<path d="M75.2361 66.7082C75.2361 66.7082 79.316 69.6036 80.0837 79.2294C80.3908 83.0205 80.9428 98.1446 82.1054 104.652C77.9194 107.642 65.3873 107.233 63.4241 105.485C63.9798 92.3245 58.9494 74.868 62.5979 66.8398C68.6373 66.0977 75.2361 66.7082 75.2361 66.7082Z" fill="#263238"/>
<path opacity="0.2" d="M71.0977 94.3133C71.1525 88.7821 70.3373 81.1707 67.8623 76.6594C68.7068 82.2894 71.0977 94.3133 71.0977 94.3133Z" fill="black"/>
<path d="M60.6823 47.9759C60.6823 51.1089 58.1854 52.754 61.0113 55.1669C61.1795 57.8722 61.3769 62.7161 62.2068 67.1287C63.0659 68.3241 69.3466 68.2254 75.8722 66.8106C75.0204 63.0269 75.3348 56.8632 77.5685 48.4329C77.6875 47.965 77.7086 47.4776 77.6304 47.0012C77.5523 46.5249 77.3766 46.0698 77.1144 45.6644C76.8522 45.2591 76.5091 44.9123 76.1066 44.6457C75.7041 44.3792 75.251 44.1986 74.7754 44.1153C74.238 44.0203 73.6787 43.9326 73.0865 43.8594C71.0456 43.5586 68.9857 43.4046 66.9228 43.3988C66.2574 43.3988 65.5665 43.4427 64.9084 43.4865C63.7652 43.5572 62.6919 44.0607 61.9068 44.8947C61.1217 45.7287 60.6838 46.8305 60.6823 47.9759Z" fill="#E0E0E0"/>
<path d="M74.0136 53.4156L66.3548 55.15C66.0634 55.216 65.8807 55.5058 65.9467 55.7972L68.4263 66.747C68.4923 67.0384 68.7821 67.2212 69.0735 67.1552L76.7323 65.4208C77.0237 65.3548 77.2065 65.065 77.1405 64.7736L74.6608 53.8238C74.5948 53.5324 74.305 53.3496 74.0136 53.4156Z" fill="#8A1114"/>
<path d="M67.6795 47.4385C67.6795 47.4385 66.4402 48.9227 65.4166 49.2664L65.2996 49.9975C66.594 49.8322 67.7887 49.2161 68.6739 48.2574L67.6795 47.4385Z" fill="#8A1114"/>
<path d="M64.3125 46.5428C64.3125 46.5428 64.2613 48.473 64.7951 49.4162L64.3966 50.045C63.5348 49.0643 63.0456 47.8115 63.0147 46.5062L64.3125 46.5428Z" fill="#8A1114"/>
<path d="M72.8342 36.9061C72.3443 38.851 71.7704 42.4374 73.0865 43.8522C73.0865 43.8522 68.184 45.1902 64.9888 49.5772C63.5265 44.9672 66.9374 43.3915 66.9374 43.3915C69.1711 43.026 69.2003 41.3955 68.8932 39.8308L72.8342 36.9061Z" fill="#FFB573"/>
<path opacity="0.2" d="M71.2293 38.1016L68.8969 39.8381C68.9723 40.1992 69.0163 40.5661 69.0285 40.9348C69.8767 40.8763 71.0831 40.0391 71.222 39.1654C71.2861 38.8139 71.2886 38.4539 71.2293 38.1016Z" fill="black"/>
<path d="M75.1081 33.4404C74.1686 36.5917 73.8396 37.948 71.8618 39.1873C68.8859 41.0481 65.2813 39.1325 65.2594 35.7472C65.2594 32.6983 66.7838 28.07 70.1728 27.5655C73.5617 27.061 76.0623 30.2854 75.1081 33.4404Z" fill="#FFB573"/>
<path d="M72.6514 28.8377C71.7631 31.8757 72.5235 35.0526 74.3368 35.4181C76.8556 34.4786 76.7313 31.6819 76.0879 30.4024C75.4445 29.1228 73.1632 27.0865 72.6514 28.8377Z" fill="#263238"/>
<path d="M74.0297 34.2958C72.6295 34.7601 72.3589 35.6996 72.3589 35.6996C72.3589 35.6996 73.3204 35.0196 74.2417 35.1476C74.108 34.8832 74.0355 34.592 74.0297 34.2958Z" fill="#263238"/>
<path d="M70.5311 33.1442C70.4689 33.4038 70.2825 33.5793 70.1106 33.539C69.9388 33.4988 69.8474 33.2466 69.9096 32.987C69.9717 32.7275 70.1582 32.5483 70.33 32.5922C70.5018 32.6361 70.5786 32.8847 70.5311 33.1442Z" fill="#263238"/>
<path d="M67.2883 32.3728C67.2262 32.6324 67.0398 32.8079 66.8679 32.764C66.6961 32.7201 66.6047 32.4752 66.6669 32.212C66.729 31.9487 66.9155 31.7769 67.0873 31.8208C67.2591 31.8647 67.3542 32.1096 67.2883 32.3728Z" fill="#263238"/>
<path d="M67.1677 31.8538L66.5791 31.5138C66.5791 31.5138 66.7875 32.0841 67.1677 31.8538Z" fill="#263238"/>
<path d="M67.9025 32.797C67.5309 33.3323 67.0853 33.8123 66.5791 34.2228C66.6903 34.3516 66.8277 34.4551 66.9822 34.5263C67.1367 34.5976 67.3046 34.6349 67.4748 34.6359L67.9025 32.797Z" fill="#ED893E"/>
<path d="M75.1264 36.6027C74.9328 36.83 74.6925 37.0129 74.4219 37.1391C74.1512 37.2652 73.8566 37.3317 73.5581 37.3338C72.794 37.3119 72.6624 36.4345 73.0828 35.7143C73.4484 35.0636 74.3111 34.2922 74.9765 34.6614C75.6419 35.0307 75.6455 36.0104 75.1264 36.6027Z" fill="#FFB573"/>
<path d="M71.1416 32.0256C71.1022 32.0061 71.072 31.972 71.0575 31.9305C70.9988 31.7394 70.8972 31.5642 70.7603 31.4184C70.6234 31.2727 70.4549 31.1602 70.2678 31.0897C70.2274 31.0785 70.193 31.0521 70.1718 31.0159C70.1506 30.9797 70.1444 30.9366 70.1545 30.8959C70.1591 30.8759 70.1678 30.857 70.1801 30.8404C70.1923 30.8239 70.2078 30.81 70.2257 30.7997C70.2435 30.7894 70.2633 30.7829 70.2837 30.7806C70.3042 30.7783 70.3249 30.7802 70.3446 30.7863C70.5838 30.8696 70.8001 31.0079 70.976 31.1902C71.1519 31.3724 71.2825 31.5935 71.3573 31.8355C71.3647 31.8549 71.3679 31.8756 71.3669 31.8963C71.3659 31.917 71.3605 31.9373 71.3513 31.9559C71.342 31.9744 71.329 31.9909 71.313 32.0041C71.297 32.0174 71.2785 32.0272 71.2586 32.0329C71.22 32.0453 71.1783 32.0427 71.1416 32.0256Z" fill="#263238"/>
<path d="M66.1112 30.8155C66.0697 30.8169 66.0292 30.8025 65.9978 30.7753C65.969 30.7453 65.9529 30.7054 65.9529 30.6638C65.9529 30.6222 65.969 30.5823 65.9978 30.5523C66.1608 30.3638 66.3669 30.2176 66.5986 30.1259C66.8303 30.0342 67.0807 29.9999 67.3285 30.0259C67.3703 30.0331 67.4076 30.0561 67.4328 30.0901C67.458 30.1242 67.4691 30.1666 67.4638 30.2087C67.4575 30.2499 67.4351 30.2869 67.4015 30.3116C67.3679 30.3362 67.3259 30.3466 67.2847 30.3403C67.0885 30.3207 66.8906 30.3491 66.7078 30.423C66.525 30.4968 66.3629 30.614 66.2355 30.7643C66.2197 30.7813 66.2004 30.7947 66.1789 30.8035C66.1575 30.8124 66.1343 30.8165 66.1112 30.8155Z" fill="#263238"/>
<path d="M70.4031 32.6288L69.8145 32.2852C69.8145 32.2852 70.0229 32.8591 70.4031 32.6288Z" fill="#263238"/>
<path d="M70.213 58.5851L67.2883 58.0184L67.6174 61.3781C67.6174 61.3781 69.8108 61.2831 71.0611 60.2814L71.1781 59.8427C71.0428 59.1152 70.8783 58.8483 70.213 58.5851Z" fill="#FFB573"/>
<path d="M65.5299 59.4515L65.8699 60.8736C65.9196 61.0779 66.044 61.2561 66.2186 61.3731C66.3932 61.4902 66.6053 61.5376 66.8131 61.5061L67.632 61.3781L67.303 58.0184L66.0563 58.4718C65.8638 58.5423 65.7039 58.681 65.6069 58.8616C65.5099 59.0422 65.4825 59.2521 65.5299 59.4515Z" fill="#FFB573"/>
<path d="M76.7532 46.5721C77.6419 48.2739 78.4174 50.0325 79.0747 51.8364C79.4037 52.7394 79.7144 53.6643 79.963 54.6112C80.2341 55.5923 80.4177 56.5955 80.5114 57.609C80.5333 57.8758 80.5443 58.15 80.548 58.4279V58.5266V58.6838C80.5391 58.7915 80.5195 58.898 80.4895 59.0018C80.4358 59.2034 80.352 59.3956 80.2409 59.5721C80.0715 59.8349 79.85 60.0601 79.5901 60.2338C79.2723 60.4453 78.9214 60.6022 78.5519 60.6981C78.272 60.7755 77.9875 60.8353 77.7001 60.8773C76.7036 61.0026 75.6981 61.0405 74.695 60.9906C72.7933 60.9028 70.9006 60.6756 69.0322 60.3106C68.8298 60.2771 68.6474 60.1685 68.5216 60.0065C68.3957 59.8445 68.3355 59.641 68.3531 59.4366C68.3706 59.2322 68.4645 59.042 68.6162 58.9038C68.7678 58.7656 68.9659 58.6896 69.1711 58.6911C70.999 58.6582 72.8488 58.6107 74.6292 58.4754C75.4816 58.4163 76.3284 58.2941 77.1627 58.1098C77.333 58.0704 77.5004 58.0191 77.6635 57.9563C77.7444 57.9339 77.8193 57.8939 77.8829 57.8393C77.8127 57.8808 77.7547 57.9401 77.7147 58.0111C77.6661 58.0881 77.6292 58.1719 77.605 58.2597C77.5921 58.309 77.5823 58.3591 77.5758 58.4096C77.5739 58.4339 77.5739 58.4584 77.5758 58.4827C77.5758 58.2963 77.5429 58.1171 77.5136 57.9124C77.1939 56.218 76.6952 54.5624 76.0257 52.9734C75.364 51.3246 74.6073 49.6466 73.8322 48.0636V48.0344C73.6751 47.6518 73.6679 47.2241 73.8119 46.8364C73.9559 46.4488 74.2407 46.1296 74.6095 45.9424C74.9783 45.7552 75.4041 45.7138 75.802 45.8265C76.2 45.9391 76.5409 46.1975 76.7569 46.5501L76.7532 46.5721Z" fill="#FFB573"/>
<path d="M74.9656 44.2287C77.0603 44.6162 77.9926 46.4989 79.5134 50.2571C79.0491 52.7869 75.3311 54.1177 75.3311 54.1177C75.3311 54.1177 73.1961 50.3339 72.7721 48.3269C72.348 46.3198 72.8525 43.8375 74.9656 44.2287Z" fill="#E0E0E0"/>
<path d="M70.5384 133.58C70.5212 133.532 70.488 133.49 70.4441 133.463C70.4002 133.436 70.3484 133.424 70.2971 133.43L67.8184 133.394C67.5648 133.377 67.3115 133.431 67.0873 133.551C65.9526 134.26 64.6781 134.715 63.351 134.885C62.8246 134.966 63.0622 135.854 64.3052 135.869C66.3561 135.891 66.729 135.737 68.4801 135.756C69.9754 135.774 69.2625 135.84 70.4506 135.869C70.7358 135.869 70.9697 135.69 70.9332 135.503L70.5384 133.58Z" fill="#263238"/>
<path d="M79.0893 133.58C79.0716 133.532 79.0382 133.491 78.9945 133.464C78.9508 133.437 78.8992 133.425 78.848 133.43L76.8263 133.394C76.5726 133.376 76.319 133.43 76.0952 133.551C75.364 134.059 75.4664 134.648 73.7993 134.885C73.2729 134.966 73.5325 135.854 74.7754 135.869C76.8263 135.891 76.702 135.756 77.5356 135.756C78.3691 135.756 77.8573 135.84 79.0491 135.869C79.3342 135.869 79.5645 135.69 79.5207 135.503L79.0893 133.58Z" fill="#263238"/>
<path d="M66.3305 48.0015C67.3688 48.0453 69.2734 48.8971 69.884 49.8074C70.7467 48.9118 74.1174 46.8316 74.1759 44.013C73.7633 43.6163 73.2434 43.3493 72.6806 43.2452C72.6806 43.2452 68.184 45.4205 66.3305 48.0015Z" fill="#FAFAFA"/>
<path d="M64.6488 47.8552C64.6488 47.8552 64.3673 45.5777 67.1238 43.3659C66.846 43.1392 65.7565 43.3951 65.7565 43.3951C65.7565 43.3951 62.5358 44.7807 62.6308 48.367C63.2112 47.9403 63.9352 47.7567 64.6488 47.8552Z" fill="#FAFAFA"/>
<path d="M64.2394 48.8204C63.8409 49.0069 63.6837 50.3047 64.2394 50.6081C64.7951 50.9115 64.7402 49.6722 65.0619 49.2481C65.3837 48.8241 64.9376 48.495 64.2394 48.8204Z" fill="#8A1114"/>
<path d="M64.7293 49.3249C64.4441 49.6905 64.8134 50.9334 65.4275 50.9298C66.0417 50.9261 65.5116 49.833 65.6323 49.292C65.7529 48.7509 65.2155 48.6815 64.7293 49.3249Z" fill="#8A1114"/>
<path d="M64.8134 50.2498C64.1297 49.1932 64.0822 54.761 65.7383 56.9545C65.6286 54.7939 66.7875 51.7304 64.8134 50.2498Z" fill="#8A1114"/>
<path d="M64.7512 50.2023C64.4478 49.1275 62.9233 53.8362 63.7678 56.1357C64.2467 54.2749 66.0344 51.979 64.7512 50.2023Z" fill="#8A1114"/>
<path d="M69.8474 35.6412C70.0067 35.5718 70.1596 35.4886 70.3044 35.3926C70.3126 35.3844 70.3191 35.3747 70.3235 35.3641C70.3279 35.3534 70.3302 35.342 70.3302 35.3304C70.3302 35.3189 70.3279 35.3074 70.3235 35.2968C70.3191 35.2861 70.3126 35.2764 70.3044 35.2683C70.2892 35.2488 70.2672 35.2358 70.2429 35.2317C70.2185 35.2276 70.1935 35.2329 70.1728 35.2463C69.8468 35.4649 69.4759 35.6077 69.0874 35.664C68.6989 35.7203 68.3028 35.6887 67.9281 35.5717C67.9171 35.5669 67.9052 35.5642 67.8931 35.564C67.8811 35.5638 67.8691 35.5659 67.8579 35.5704C67.8467 35.5748 67.8365 35.5814 67.8278 35.5898C67.8192 35.5981 67.8122 35.6081 67.8075 35.6192C67.7992 35.642 67.8004 35.6671 67.8107 35.6891C67.821 35.711 67.8395 35.728 67.8623 35.7362C68.5131 35.9504 69.2201 35.9165 69.8474 35.6412Z" fill="#263238"/>
<path d="M59.2382 38.2185H40.5607V38.8254H59.2382V38.2185Z" fill="#8A1114"/>
<path d="M58.7922 38.8253H41.0067L41.7891 39.2494H58.0099L58.7922 38.8253Z" fill="#8A1114"/>
<path opacity="0.2" d="M58.7922 38.8253H41.0067L41.7891 39.2494H58.0099L58.7922 38.8253Z" fill="black"/>
<path d="M46.5453 21.9612C46.436 21.9602 46.3315 21.9164 46.2542 21.8391C46.177 21.7618 46.1331 21.6573 46.1322 21.5481V20.1625C46.1331 20.0532 46.177 19.9487 46.2542 19.8714C46.3315 19.7942 46.436 19.7503 46.5453 19.7494C46.6545 19.7503 46.7591 19.7942 46.8363 19.8714C46.9136 19.9487 46.9574 20.0532 46.9584 20.1625V21.5481C46.9574 21.6573 46.9136 21.7618 46.8363 21.8391C46.7591 21.9164 46.6545 21.9602 46.5453 21.9612Z" fill="#263238"/>
<path d="M47.2106 20.0784V19.8956C47.2106 19.7179 47.0666 19.5739 46.8889 19.5739H46.2016C46.024 19.5739 45.8799 19.7179 45.8799 19.8956V20.0784C45.8799 20.256 46.024 20.4001 46.2016 20.4001H46.8889C47.0666 20.4001 47.2106 20.256 47.2106 20.0784Z" fill="#263238"/>
<path d="M47.207 24.9698V21.0179C47.207 20.9749 47.1901 20.9336 47.1601 20.9029C47.13 20.8721 47.0891 20.8543 47.0461 20.8534H46.0444C46.0014 20.8543 45.9605 20.8721 45.9304 20.9029C45.9004 20.9336 45.8835 20.9749 45.8836 21.0179V24.9698C45.8837 25.2668 45.8209 25.5605 45.6992 25.8315C45.5776 26.1024 45.4 26.3445 45.178 26.5418C44.9568 26.7406 44.7797 26.9835 44.6582 27.2549C44.5367 27.5263 44.4734 27.8201 44.4724 28.1175V38.2551H48.6144V28.1175C48.6142 27.82 48.5512 27.526 48.4296 27.2545C48.308 26.983 48.1306 26.7401 47.9089 26.5418C47.6879 26.3439 47.5112 26.1016 47.3902 25.8307C47.2693 25.5598 47.2068 25.2665 47.207 24.9698Z" fill="#8A1114"/>
<path d="M48.6145 29.3167H45.8799V35.8715H48.6145V29.3167Z" fill="#E0E0E0"/>
<path d="M52.4969 38.2185H52.0034C52.1677 38.2296 52.3326 38.2296 52.4969 38.2185Z" fill="#8A1114"/>
<path d="M55.4764 38.2185H54.9792C55.1448 38.2295 55.3109 38.2295 55.4764 38.2185Z" fill="#8A1114"/>
<path opacity="0.2" d="M51.8352 30.4865V32.1498C51.8352 33.4732 52.5883 34.5736 53.5425 34.7089V37.6336C53.5425 38.0832 53.1038 38.2112 52.7638 38.2404H54.7123C54.3723 38.2112 53.9336 38.0832 53.9336 37.6336V34.7089C54.8878 34.5773 55.6409 33.4769 55.6409 32.1498V30.4865H51.8352Z" fill="#8A1114"/>
<path d="M74.4866 28.9218C73.0243 29.5432 68.1255 29.7333 66.2062 29.3166C68.1913 26.5126 72.6514 25.69 74.4866 28.9218Z" fill="#263238"/>
<path d="M79.0966 38.9387C79.0825 38.9385 79.0686 38.935 79.0559 38.9287C79.0433 38.9224 79.0322 38.9133 79.0235 38.9022C78.976 38.8364 77.8975 37.2497 77.8756 33.0017C77.8756 31.2286 77.3308 29.8029 76.4132 29.0827C76.1748 28.8857 75.8935 28.7473 75.5919 28.6787C75.2903 28.6102 74.9769 28.6133 74.6767 28.6878C74.665 28.6905 74.6528 28.6908 74.6409 28.6887C74.629 28.6866 74.6177 28.6823 74.6075 28.6758C74.5973 28.6694 74.5885 28.661 74.5816 28.6511C74.5746 28.6413 74.5697 28.6301 74.567 28.6184C74.5644 28.6066 74.5641 28.5944 74.5662 28.5826C74.5682 28.5707 74.5726 28.5593 74.5791 28.5491C74.5855 28.539 74.5939 28.5302 74.6038 28.5232C74.6136 28.5163 74.6247 28.5113 74.6365 28.5087C74.9627 28.4311 75.3024 28.4292 75.6294 28.5034C75.9564 28.5775 76.2621 28.7257 76.5229 28.9364C77.4917 29.6932 78.051 31.1738 78.062 32.998C78.0839 37.1803 79.1587 38.7815 79.1587 38.7962C79.1658 38.806 79.1708 38.8171 79.1735 38.8289C79.1761 38.8406 79.1765 38.8528 79.1744 38.8647C79.1724 38.8766 79.168 38.888 79.1616 38.8982C79.1551 38.9084 79.1467 38.9172 79.1368 38.9241C79.1246 38.9318 79.1109 38.9367 79.0966 38.9387Z" fill="#263238"/>
<path d="M105.404 17.4169C106.424 18.8134 106.42 20.9886 106.073 22.1694C104.245 21.3396 104.53 18.956 104.53 18.956L105.404 17.4169Z" fill="#263238"/>
<path d="M110.869 34.7015L111.922 35.8604L113.019 37.0376C113.75 37.8163 114.481 38.5767 115.234 39.3079C115.6 39.6735 115.965 40.039 116.357 40.3607C116.748 40.6825 117.088 41.0261 117.472 41.3222C117.856 41.6183 118.203 41.8816 118.543 42.1082C118.799 42.2799 119.068 42.4315 119.347 42.5615L118.788 42.4738C118.622 42.4538 118.454 42.4912 118.313 42.5798C118.313 42.5798 118.4 42.5798 118.525 42.5067C118.864 42.2988 119.179 42.0535 119.464 41.7755C120.213 41.0643 120.913 40.3033 121.559 39.498C122.257 38.6608 122.937 37.7688 123.613 36.8658C124.29 35.9628 124.966 35.0379 125.631 34.1276L125.664 34.0874C125.897 33.7799 126.231 33.5639 126.607 33.477C126.983 33.39 127.377 33.4377 127.722 33.6116C128.066 33.7856 128.338 34.0748 128.492 34.4289C128.645 34.783 128.669 35.1796 128.56 35.5497C128.19 36.7051 127.761 37.8411 127.277 38.9533C126.798 40.05 126.268 41.1467 125.668 42.2435C125.046 43.3842 124.327 44.4691 123.518 45.4862C123.036 46.0875 122.492 46.6364 121.895 47.124C121.5 47.4439 121.066 47.714 120.605 47.9283C119.927 48.2442 119.184 48.3969 118.437 48.3743C118.299 48.3691 118.162 48.3507 118.027 48.3194L117.874 48.2865C117.073 48.0946 116.298 47.8061 115.567 47.4274C114.954 47.1154 114.362 46.7649 113.794 46.3782C112.752 45.6766 111.757 44.906 110.818 44.0714C109.897 43.2708 109.041 42.4336 108.211 41.5818C107.802 41.1504 107.393 40.719 107.001 40.273C106.61 39.827 106.234 39.392 105.821 38.8838C105.36 38.2142 105.163 37.3976 105.268 36.5915C105.373 35.7853 105.773 35.0467 106.391 34.5181C107.009 33.9895 107.8 33.7082 108.613 33.7286C109.426 33.749 110.202 34.0695 110.792 34.6284L110.869 34.7015Z" fill="#E0E0E0"/>
<path d="M127.269 36.1017L130.527 36.2589L129.47 31.8719C129.47 31.8719 126.439 32.095 125.953 33.6523C125.902 33.826 125.913 34.0118 125.982 34.1788L126.582 35.6155C126.639 35.7534 126.733 35.8723 126.855 35.9584C126.977 36.0445 127.12 36.0942 127.269 36.1017Z" fill="#FF8B7B"/>
<path d="M133.433 33.6561L132.804 32.1937C132.682 31.9103 132.463 31.6792 132.187 31.5414C131.91 31.4036 131.594 31.3679 131.294 31.4406L129.466 31.8903L130.523 36.2773L132.716 35.3926C132.879 35.3282 133.028 35.2316 133.153 35.1085C133.278 34.9855 133.377 34.8386 133.443 34.6765C133.51 34.5144 133.544 34.3405 133.542 34.1652C133.54 33.9899 133.503 33.8167 133.433 33.6561Z" fill="#FF8B7B"/>
<path d="M103.166 96.8541C99.708 81.6422 97.569 63.301 97.569 63.301L111.75 63.0743C111.75 63.0743 111.553 87.7913 111.582 98.1446C111.619 108.911 112.364 132.604 112.364 132.604H108.062C108.062 132.604 102.508 110.161 103.166 96.8541Z" fill="#263238"/>
<path d="M102.062 75.866L99.818 79.1928C100.487 83.3458 101.28 87.9192 102.205 92.4012C102.593 85.5136 102.527 77.5111 102.062 75.866Z" fill="black"/>
<path d="M118.104 134.714C118.104 134.714 112.178 133.317 111.732 132.378H108.442L108.464 135.862H110.496L110.807 135.54L111.323 135.862C112.968 135.862 117.34 135.796 118.375 135.427C118.395 135.294 118.381 135.159 118.334 135.034C118.286 134.909 118.207 134.799 118.104 134.714Z" fill="#263238"/>
<path d="M89.976 96.4264C91.618 81.1268 91.567 70.9051 93.566 63.3669L106.479 63.1731C106.479 63.1731 101.101 87.4404 98.604 97.5377C96.107 107.635 91.833 132.597 91.833 132.597H87.849C87.849 132.597 86.595 108.257 89.976 96.4264Z" fill="#263238"/>
<path d="M92.543 66.3463C92.258 68.1742 91.241 78.9881 90.188 82.9254C98.798 86.7457 111.959 85.2432 112.364 82.7646C112.244 78.1729 111.999 66.3463 111.999 66.3463H92.543Z" fill="#E0E0E0"/>
<path opacity="0.1" d="M93.022 68.3533C93.623 69.3275 94.349 70.2186 95.182 71.0037C95.182 71.0037 93.325 70.6711 93.022 68.3533Z" fill="black"/>
<path opacity="0.1" d="M110.328 70.9014C110.822 70.1654 111.222 69.3709 111.52 68.5361C111.52 68.5361 111.604 70.4043 110.328 70.9014Z" fill="black"/>
<path opacity="0.1" d="M93.102 69.7316C93.301 70.4638 93.594 71.1669 93.976 71.8227C93.628 71.6112 93.356 71.2949 93.199 70.9192C93.042 70.5435 93.008 70.1277 93.102 69.7316Z" fill="black"/>
<path d="M95.548 134.714C95.548 134.714 91.852 133.317 91.428 132.378H88.137L88.072 135.862H90.766L91.084 135.54L91.592 135.862C93.237 135.862 94.754 135.796 95.8 135.427C95.825 135.296 95.815 135.161 95.77 135.036C95.726 134.911 95.649 134.799 95.548 134.714Z" fill="#263238"/>
<path d="M93.091 32.8444C97.654 32.2777 104.168 32.3326 108.537 33.0857C109.628 33.2836 110.63 33.8196 111.4 34.6181C112.171 35.4165 112.67 36.4368 112.829 37.5348C113.746 44.1335 112.957 55.664 112.372 67.2712C102.391 70.6857 91.863 67.2236 91.863 67.2236C91.497 64.8839 92.316 57.2104 92.864 53.1159C92.042 48.8861 90.305 44.0421 89.143 38.4231C89.002 37.7946 88.994 37.1434 89.121 36.5117C89.247 35.88 89.505 35.2819 89.877 34.756C90.249 34.2302 90.727 33.7883 91.281 33.459C91.835 33.1297 92.451 32.9203 93.091 32.8444Z" fill="#263238"/>
<path opacity="0.1" d="M93.091 32.8444C97.654 32.2777 104.168 32.3326 108.537 33.0857C109.628 33.2836 110.63 33.8196 111.4 34.6181C112.171 35.4165 112.67 36.4368 112.829 37.5348C113.746 44.1335 112.957 55.664 112.372 67.2712C102.391 70.6857 91.863 67.2236 91.863 67.2236C91.497 64.8839 92.316 57.2104 92.864 53.1159C92.042 48.8861 90.305 44.0421 89.143 38.4231C89.002 37.7946 88.994 37.1434 89.121 36.5117C89.247 35.88 89.505 35.2819 89.877 34.756C90.249 34.2302 90.727 33.7883 91.281 33.459C91.835 33.1297 92.451 32.9203 93.091 32.8444Z" fill="white"/>
<path d="M97.606 24.1327L102.797 28.3917C102.125 30.1794 101.913 32.0475 104.845 32.7531C105.576 33.7219 104.479 35.4218 103.177 36.0835C100.099 35.3816 98.326 34.5554 97.131 32.9139C97.507 31.6271 98.107 26.7758 97.606 24.1327Z" fill="#FF8B7B"/>
<path opacity="0.2" d="M99.77 25.9094L102.797 28.3881C102.633 28.8014 102.511 29.23 102.432 29.6676C101.258 29.7517 99.628 28.5709 99.555 27.496C99.528 26.9584 99.601 26.4205 99.77 25.9094Z" fill="black"/>
<path d="M96.86 21.2299C97.335 24.4872 97.445 26.4174 99.24 27.9456C101.942 30.2451 105.861 28.3733 106.373 25.0209C106.83 22.0122 105.978 17.1902 102.662 16.1812C101.926 15.9574 101.146 15.9242 100.394 16.0848C99.642 16.2453 98.943 16.5944 98.363 17.0991C97.783 17.6039 97.341 18.2478 97.078 18.9703C96.815 19.6929 96.74 20.4704 96.86 21.2299Z" fill="#FF8B7B"/>
<path d="M96.831 22.7325C97.166 23.0952 97.598 23.3534 98.076 23.476C98.554 23.5986 99.057 23.5803 99.525 23.4234C98.743 22.6301 99.503 19.7274 98.721 18.5466C100.235 18.8463 106.128 19.7018 106.691 17.6582C107.301 15.4647 104.863 13.7136 103.495 13.5491C103.898 14.463 103.861 15.1247 102.362 14.8286C100.863 14.5325 94.685 13.1067 95.369 16.0021C93.38 16.0021 93.245 18.8975 94.7 20.2831C95.497 21.02 96.211 21.8412 96.831 22.7325Z" fill="#263238"/>
<path d="M95.734 15.8631C94.542 15.567 94.915 14.4703 95.182 14.3569C94.067 14.6275 93.661 15.7242 95.007 16.2287C96.352 16.7332 95.734 15.8631 95.734 15.8631Z" fill="#263238"/>
<path d="M95.943 23.2296C96.053 23.5866 96.234 23.918 96.474 24.2047C96.713 24.4915 97.008 24.7279 97.339 24.9004C98.235 25.3573 98.886 24.6042 98.801 23.661C98.732 22.8092 98.187 21.548 97.207 21.4675C96.992 21.4568 96.777 21.5003 96.583 21.594C96.388 21.6877 96.221 21.8286 96.095 22.0039C95.969 22.1792 95.889 22.3832 95.863 22.5974C95.836 22.8115 95.863 23.0289 95.943 23.2296Z" fill="#FF8B7B"/>
<path d="M101.434 21.3469C101.456 21.6138 101.616 21.8185 101.799 21.8039C101.982 21.7892 102.099 21.5553 102.077 21.2921C102.055 21.0288 101.894 20.8205 101.711 20.8351C101.529 20.8497 101.412 21.08 101.434 21.3469Z" fill="#263238"/>
<path d="M104.621 21.2701C104.643 21.537 104.804 21.7417 104.987 21.7235C105.17 21.7052 105.283 21.4785 105.261 21.2116C105.239 20.9448 105.078 20.7437 104.896 20.7583C104.713 20.7729 104.6 21.0033 104.621 21.2701Z" fill="#263238"/>
<path d="M103.974 21.6284C104.359 22.4142 104.851 23.1426 105.437 23.7927C105.002 24.2752 104.183 24.1582 104.183 24.1582L103.974 21.6284Z" fill="#FF5652"/>
<path d="M100.94 20.4987C100.915 20.5058 100.888 20.5058 100.863 20.4987C100.844 20.4915 100.826 20.4804 100.811 20.466C100.796 20.4516 100.784 20.4344 100.775 20.4152C100.767 20.3961 100.763 20.3754 100.763 20.3546C100.763 20.3338 100.767 20.3131 100.776 20.294C100.863 20.0593 101.005 19.8487 101.19 19.6797C101.375 19.5106 101.598 19.3879 101.839 19.3216C101.881 19.3133 101.923 19.3218 101.958 19.3451C101.993 19.3684 102.018 19.4047 102.026 19.4459C102.034 19.4871 102.026 19.5299 102.002 19.5648C101.979 19.5998 101.943 19.6241 101.902 19.6323C101.71 19.6864 101.535 19.7853 101.389 19.9207C101.244 20.0561 101.132 20.2241 101.064 20.411C101.053 20.4349 101.035 20.4556 101.014 20.4709C100.992 20.4862 100.967 20.4958 100.94 20.4987Z" fill="#263238"/>
<path d="M106.471 20.0747C106.445 20.0749 106.419 20.0682 106.396 20.0554C106.373 20.0426 106.354 20.0241 106.34 20.0016C106.242 19.8307 106.106 19.6855 105.941 19.5781C105.776 19.4706 105.588 19.404 105.393 19.3838C105.372 19.3833 105.352 19.3788 105.333 19.3704C105.314 19.3621 105.297 19.3501 105.283 19.3352C105.268 19.3202 105.257 19.3026 105.25 19.2834C105.242 19.2641 105.239 19.2436 105.239 19.2229C105.241 19.1809 105.259 19.1413 105.29 19.1126C105.321 19.0839 105.362 19.0684 105.404 19.0694C105.652 19.092 105.89 19.1734 106.1 19.307C106.31 19.4405 106.485 19.6223 106.61 19.8371C106.631 19.8728 106.637 19.915 106.628 19.9552C106.618 19.9953 106.594 20.0303 106.559 20.0528C106.533 20.0702 106.502 20.078 106.471 20.0747Z" fill="#263238"/>
<path d="M97.131 32.9139C97.131 32.9139 102.457 41.0079 104.483 46.7183C106.479 40.0171 106.709 34.6541 104.848 32.7531C104.249 33.5098 101.836 34.5334 97.131 32.9139Z" fill="#E0E0E0"/>
<path d="M95.314 38.8948L94.798 40.3571L94.287 41.8779C93.947 42.8906 93.636 43.9069 93.347 44.9049C93.201 45.4058 93.073 45.903 92.956 46.3929C92.839 46.8827 92.725 47.369 92.645 47.8333C92.565 48.2975 92.502 48.7472 92.462 49.1493C92.441 49.4573 92.441 49.7663 92.462 50.0743L92.272 49.5405C92.119 49.2517 91.961 49.1749 91.954 49.1749C91.947 49.1749 92.005 49.248 92.119 49.3285C92.459 49.5292 92.821 49.6911 93.197 49.811C94.169 50.1377 95.162 50.3991 96.169 50.5934C97.24 50.8054 98.344 50.959 99.459 51.1418C100.575 51.3246 101.722 51.4525 102.826 51.6097H102.878C103.263 51.6649 103.617 51.8548 103.876 52.1457C104.135 52.4367 104.282 52.8099 104.292 53.1992C104.302 53.5886 104.174 53.9689 103.931 54.2728C103.687 54.5768 103.344 54.7847 102.962 54.8597C101.771 55.0858 100.569 55.2518 99.361 55.3569C98.154 55.4666 96.937 55.5214 95.705 55.5141C94.406 55.5118 93.109 55.398 91.83 55.1741C91.078 55.0339 90.343 54.8171 89.636 54.527C89.165 54.3328 88.721 54.0798 88.313 53.7739C87.712 53.3301 87.224 52.7517 86.887 52.085C86.825 51.9608 86.775 51.8311 86.737 51.6974L86.697 51.5476C86.484 50.7517 86.367 49.933 86.35 49.1091C86.332 48.4221 86.358 47.7347 86.427 47.0509C86.543 45.8018 86.745 44.5621 87.03 43.3403C87.289 42.1485 87.618 40.9969 87.973 39.8599C88.156 39.2933 88.338 38.7303 88.543 38.1709C88.748 37.6116 88.953 37.0742 89.205 36.471C89.535 35.683 90.158 35.0542 90.943 34.7176C91.729 34.381 92.614 34.363 93.412 34.6673C94.21 34.9717 94.859 35.5746 95.221 36.3486C95.582 37.1225 95.629 38.0068 95.35 38.8144L95.314 38.8948Z" fill="#E0E0E0"/>
<path d="M103.346 52.0813L106.577 52.4835L104.793 56.6182C104.793 56.6182 101.843 55.887 101.631 54.2638C101.61 54.0844 101.653 53.9032 101.752 53.752L102.585 52.4396C102.665 52.3143 102.779 52.2143 102.914 52.1509C103.048 52.0875 103.198 52.0634 103.346 52.0813Z" fill="#FF8B7B"/>
<path d="M109.001 55.5434L108.131 56.8888C107.962 57.1474 107.707 57.3377 107.412 57.4261C107.116 57.5144 106.798 57.495 106.515 57.3713L104.793 56.6182L106.577 52.4835L108.592 53.7302C108.739 53.8211 108.867 53.9406 108.967 54.0815C109.068 54.2224 109.139 54.3819 109.177 54.5508C109.215 54.7196 109.219 54.8944 109.189 55.0649C109.159 55.2353 109.095 55.398 109.001 55.5434Z" fill="#FF8B7B"/>
<path d="M97.39 31.6562C96.711 31.7641 96.089 32.0992 95.625 32.6068C97.072 34.5386 99.136 35.9185 101.474 36.5185C101.306 35.9591 101.81 34.325 102.366 33.7401C100.322 33.4366 97.39 31.6562 97.39 31.6562Z" fill="#FAFAFA"/>
<path d="M103.006 31.8573C103.699 31.9833 104.358 32.2536 104.94 32.6506C104.94 32.6506 106.987 34.9355 104.574 36.226C104.738 35.6667 103.477 34.1751 102.348 33.74C104.388 33.4366 103.006 31.8573 103.006 31.8573Z" fill="#FAFAFA"/>
<path d="M102.574 35.0416C100.958 34.1751 98.959 33.2356 99.514 34.7527C100.07 36.2699 99.335 36.7963 100.059 37.3118C100.783 37.8273 102.253 36.4125 102.739 36.2151C103.225 36.0177 102.574 35.0416 102.574 35.0416Z" fill="#8A1114"/>
<path d="M103.719 35.0306C104.951 34.2007 106.493 33.3014 106.219 34.782C105.945 36.2626 106.625 36.7781 106.087 37.2789C105.55 37.7798 104.168 36.3796 103.729 36.1822C103.291 35.9848 103.719 35.0306 103.719 35.0306Z" fill="#8A1114"/>
<path d="M102.355 34.9246C102.72 34.7052 103.612 34.4274 104.055 35.0233C104.497 35.6192 104.355 36.6172 103.744 36.7379C103.526 36.7819 103.3 36.7661 103.09 36.6921C102.88 36.6181 102.694 36.4886 102.552 36.3174C102.688 36.099 102.742 35.8398 102.706 35.5852C102.67 35.3306 102.546 35.0968 102.355 34.9246Z" fill="#8A1114"/>
<path d="M92.056 132.714L87.622 132.838L87.388 130.327L92.539 130.634L92.056 132.714Z" fill="black"/>
<path d="M112.522 132.707L107.733 132.838L107.202 130.663L112.551 130.144L112.522 132.707Z" fill="black"/>
<path d="M102.084 51.2295C99.845 50.5675 97.536 50.1687 95.204 50.0414C94.707 50.0706 94.517 61.3049 94.557 65.9003C94.557 66.5218 101.708 66.3975 103.536 66.116C103.638 64.8328 103.66 55.4666 104.135 52.5383C104.172 52.3092 104.13 52.0746 104.017 51.8718C103.905 51.6691 103.727 51.5099 103.514 51.4196C103.061 51.237 102.569 51.1716 102.084 51.2295Z" fill="white"/>
<path d="M139.516 33.2466H119.219V33.8242H139.516V33.2466Z" fill="#8A1114"/>
<path d="M139.092 33.8242H119.643L120.389 34.23H138.35L139.092 33.8242Z" fill="#8A1114"/>
<path opacity="0.2" d="M139.092 33.8242H119.643L120.389 34.23H138.35L139.092 33.8242Z" fill="black"/>
<path d="M130.205 25.0868C130.206 25.2526 130.157 25.4148 130.066 25.5529C129.974 25.6911 129.843 25.799 129.691 25.8629C129.538 25.9268 129.369 25.9439 129.207 25.912C129.044 25.8801 128.894 25.8007 128.777 25.6838C128.66 25.5668 128.579 25.4177 128.547 25.2552C128.514 25.0927 128.531 24.9241 128.594 24.771C128.657 24.6178 128.764 24.4868 128.902 24.3947C129.04 24.3025 129.202 24.2533 129.368 24.2533C129.477 24.2528 129.586 24.274 129.688 24.3157C129.789 24.3574 129.882 24.4187 129.959 24.4961C130.037 24.5736 130.099 24.6656 130.141 24.767C130.183 24.8684 130.205 24.9771 130.205 25.0868Z" fill="#8A1114"/>
<path d="M138.142 30.5668C137.578 28.8212 136.506 27.2836 135.063 26.1506L135.29 25.8618C136.791 27.0406 137.906 28.6407 138.493 30.4572L138.142 30.5668Z" fill="#8A1114"/>
<path d="M133.795 25.3098C133.385 25.0836 132.959 24.8892 132.519 24.7285L132.643 24.3849C133.101 24.5569 133.544 24.7635 133.97 25.0027L133.795 25.3098Z" fill="#8A1114"/>
<path d="M129.368 25.0868C127.166 25.0868 125.054 25.9615 123.497 27.5185C121.94 29.0755 121.065 31.1872 121.065 33.3891H137.67C137.67 31.1872 136.795 29.0755 135.238 27.5185C133.681 25.9615 131.57 25.0868 129.368 25.0868Z" fill="#8A1114"/>
<path opacity="0.3" d="M122.21 32.647H124.356C124.43 32.6457 124.501 32.6188 124.558 32.5708C124.615 32.5228 124.653 32.4567 124.666 32.3837C125.098 30.1098 126.454 28.1284 128.611 26.4065C128.66 26.3672 128.695 26.313 128.71 26.2521C128.725 26.1913 128.72 26.1271 128.696 26.0692C128.672 26.0114 128.629 25.9631 128.575 25.9316C128.521 25.9001 128.458 25.8871 128.395 25.8947C126.764 26.11 125.247 26.8503 124.074 28.0038C122.901 29.1573 122.135 30.6614 121.892 32.2887C121.886 32.3337 121.89 32.3794 121.903 32.4228C121.917 32.4661 121.939 32.5061 121.969 32.5401C121.999 32.574 122.036 32.6011 122.078 32.6195C122.119 32.638 122.164 32.6473 122.21 32.647Z" fill="white"/>
<path d="M102.954 25.1087C103.125 25.1162 103.297 25.1076 103.466 25.0831C103.489 25.0787 103.509 25.0654 103.522 25.0463C103.535 25.0271 103.54 25.0035 103.536 24.9808C103.53 24.9569 103.515 24.9361 103.495 24.922C103.475 24.9079 103.45 24.9015 103.426 24.904C103.044 24.9608 102.654 24.9304 102.286 24.8152C101.917 24.6999 101.58 24.5028 101.298 24.2386C101.29 24.2299 101.28 24.2229 101.269 24.2182C101.258 24.2134 101.246 24.2109 101.234 24.2109C101.222 24.2109 101.211 24.2134 101.2 24.2182C101.189 24.2229 101.179 24.2299 101.17 24.2386C101.154 24.2561 101.146 24.2789 101.146 24.3026C101.146 24.3263 101.154 24.3491 101.17 24.3666C101.654 24.8243 102.289 25.0884 102.954 25.1087Z" fill="#263238"/>
</g>
<defs>
<clipPath id="clip0_1_8">
<rect width="334" height="140" fill="white"/>
</clipPath>
</defs>
</svg>
